<svg width="40" height="7" viewBox="0 0 53 38" fill="none" xmlns="http://www.w3.org/2000/svg">
<mask id="path-1-outside-1_285_102" maskUnits="userSpaceOnUse" x="-3" y="-3" width="59" height="44" fill="black">
<rect fill="white" x="-3" y="-3" width="59" height="50"/>
<path d="M22.6713 19.016C22.6713 9.864 20.2393 3.336 16.5913 3.336C12.9433 3.336 10.5113 9.864 10.5113 19.016C10.5113 28.36 12.9433 34.824 16.5913 34.824C20.2393 34.824 22.6713 28.36 22.6713 19.016ZM32.5913 19.016C32.5913 30.536 26.8953 37.384 16.5913 37.384C6.28725 37.384 0.59125 30.536 0.59125 19.016C0.59125 7.688 6.28725 0.775997 16.5913 0.775997C26.8953 0.775997 32.5913 7.688 32.5913 19.016ZM51.4763 1.16V33.416L52.1163 37H41.1723L41.8763 33.032V6.728L36.7563 7.368V4.936L49.6203 1.16H51.4763Z"/>
</mask>
<path d="M25.6713 19.016C25.6713 14.2241 25.0409 9.90642 23.8005 6.67031C22.6706 3.72223 20.4557 0.335999 16.5913 0.335999V6.336C16.5932 6.336 16.5933 6.33609 16.5922 6.33597C16.5918 6.33592 16.5913 6.33585 16.5908 6.33577C16.5906 6.33573 16.5904 6.33569 16.5903 6.33566C16.5901 6.33564 16.59 6.33562 16.59 6.33562C16.59 6.33562 16.5901 6.33564 16.5903 6.33569C16.5905 6.33574 16.5909 6.33583 16.5913 6.33596C16.5922 6.33621 16.5937 6.33666 16.5958 6.33741C16.5999 6.33886 16.6074 6.3417 16.6183 6.34685C16.661 6.36702 16.7725 6.43058 16.9392 6.60037C17.2933 6.96119 17.7527 7.65596 18.198 8.81769C19.0856 11.1336 19.6713 14.6559 19.6713 19.016H25.6713ZM16.5913 0.335999C12.7268 0.335999 10.5119 3.72222 9.38197 6.67031C8.14161 9.90642 7.51125 14.2241 7.51125 19.016H13.5113C13.5113 14.6559 14.0969 11.1336 14.9845 8.81769C15.4298 7.65596 15.8892 6.96119 16.2433 6.60038C16.41 6.43058 16.5215 6.36702 16.5642 6.34685C16.5751 6.3417 16.5826 6.33886 16.5867 6.33741C16.5889 6.33666 16.5903 6.33621 16.5912 6.33596C16.5916 6.33583 16.592 6.33574 16.5922 6.33569C16.5924 6.33564 16.5925 6.33562 16.5925 6.33562C16.5925 6.33562 16.5924 6.33564 16.5923 6.33566C16.5921 6.33569 16.5919 6.33573 16.5917 6.33577C16.5912 6.33585 16.5907 6.33592 16.5903 6.33597C16.5892 6.33609 16.5893 6.336 16.5913 6.336V0.335999ZM7.51125 19.016C7.51125 23.8974 8.14006 28.2482 9.38094 31.495C10.5164 34.466 12.7338 37.824 16.5913 37.824V31.824C16.5897 31.824 16.5886 31.824 16.588 31.8239C16.5877 31.8239 16.5875 31.8239 16.5874 31.8239C16.5873 31.8239 16.5872 31.8239 16.5872 31.8239C16.5872 31.8239 16.5872 31.8239 16.5873 31.8239C16.5873 31.8239 16.5874 31.8239 16.5874 31.8239C16.5875 31.8239 16.5874 31.8239 16.5871 31.8238C16.5866 31.8237 16.5844 31.8232 16.5799 31.8216C16.5754 31.8201 16.5678 31.8172 16.5569 31.8121C16.5143 31.7921 16.404 31.7296 16.2391 31.5624C15.8885 31.2065 15.4303 30.5168 14.9856 29.353C14.0984 27.0318 13.5113 23.4786 13.5113 19.016H7.51125ZM16.5913 37.824C20.4487 37.824 22.6661 34.466 23.8016 31.495C25.0424 28.2482 25.6713 23.8974 25.6713 19.016H19.6713C19.6713 23.4786 19.0841 27.0318 18.1969 29.353C17.7522 30.5168 17.294 31.2065 16.9434 31.5624C16.7785 31.7296 16.6682 31.7921 16.6256 31.8121C16.6147 31.8172 16.6071 31.8201 16.6026 31.8216C16.5982 31.8232 16.5959 31.8237 16.5954 31.8238C16.5951 31.8239 16.595 31.8239 16.5951 31.8239C16.5951 31.8239 16.5952 31.8239 16.5952 31.8239C16.5953 31.8239 16.5953 31.8239 16.5953 31.8239C16.5953 31.8239 16.5952 31.8239 16.5951 31.8239C16.595 31.8239 16.5948 31.8239 16.5945 31.8239C16.5939 31.824 16.5929 31.824 16.5913 31.824V37.824ZM29.5913 19.016C29.5913 24.3204 28.2781 28.1262 26.1812 30.5634C24.1414 32.934 21.0397 34.384 16.5913 34.384V40.384C22.4468 40.384 27.3451 38.41 30.7294 34.4766C34.0564 30.6098 35.5913 25.2316 35.5913 19.016H29.5913ZM16.5913 34.384C12.1428 34.384 9.04106 32.934 7.00135 30.5634C4.9044 28.1262 3.59125 24.3204 3.59125 19.016H-2.40875C-2.40875 25.2316 -0.873898 30.6098 2.45315 34.4766C5.83744 38.41 10.7357 40.384 16.5913 40.384V34.384ZM3.59125 19.016C3.59125 13.8187 4.89902 10.0419 6.99889 7.6075C9.04359 5.2371 12.1507 3.776 16.5913 3.776V-2.224C10.7278 -2.224 5.83491 -0.229102 2.45561 3.68849C-0.868516 7.54213 -2.40875 12.8853 -2.40875 19.016H3.59125ZM16.5913 3.776C21.0318 3.776 24.1389 5.2371 26.1836 7.6075C28.2835 10.0419 29.5913 13.8187 29.5913 19.016H35.5913C35.5913 12.8853 34.051 7.54213 30.7269 3.68849C27.3476 -0.229102 22.4547 -2.224 16.5913 -2.224V3.776ZM51.4763 1.16H54.4763V-1.84H51.4763V1.16ZM51.4763 33.416H48.4763V33.6818L48.523 33.9434L51.4763 33.416ZM52.1163 37V40H55.6994L55.0695 36.4726L52.1163 37ZM41.1723 37L38.2184 36.4759L37.5931 40H41.1723V37ZM41.8763 33.032L44.8301 33.5561L44.8763 33.2961V33.032H41.8763ZM41.8763 6.728H44.8763V3.32965L41.5041 3.75117L41.8763 6.728ZM36.7563 7.368H33.7563V10.7663L37.1284 10.3448L36.7563 7.368ZM36.7563 4.936L35.9113 2.05744L33.7563 2.69002V4.936H36.7563ZM49.6203 1.16V-1.84H49.189L48.7753 -1.71855L49.6203 1.16ZM48.4763 1.16V33.416H54.4763V1.16H48.4763ZM48.523 33.9434L49.163 37.5274L55.0695 36.4726L54.4295 32.8886L48.523 33.9434ZM52.1163 34H41.1723V40H52.1163V34ZM44.1261 37.5241L44.8301 33.5561L38.9224 32.5079L38.2184 36.4759L44.1261 37.5241ZM44.8763 33.032V6.728H38.8763V33.032H44.8763ZM41.5041 3.75117L36.3841 4.39116L37.1284 10.3448L42.2484 9.70483L41.5041 3.75117ZM39.7563 7.368V4.936H33.7563V7.368H39.7563ZM37.6012 7.81455L50.4652 4.03855L48.7753 -1.71855L35.9113 2.05744L37.6012 7.81455ZM49.6203 4.16H51.4763V-1.84H49.6203V4.16Z" fill="white" mask="url(#path-1-outside-1_285_102)"/>
</svg>
