<svg width="40" height="7" viewBox="0 0 64 38" fill="none" xmlns="http://www.w3.org/2000/svg">
<mask id="path-1-outside-1_285_186" maskUnits="userSpaceOnUse" x="-3" y="-3" width="70" height="44" fill="black">
<rect fill="white" x="-3" y="-3" width="70" height="50"/>
<path d="M22.9525 19.016C22.9525 9.864 20.5205 3.336 16.8725 3.336C13.2245 3.336 10.7925 9.864 10.7925 19.016C10.7925 28.36 13.2245 34.824 16.8725 34.824C20.5205 34.824 22.9525 28.36 22.9525 19.016ZM32.8725 19.016C32.8725 30.536 27.1765 37.384 16.8725 37.384C6.5685 37.384 0.8725 30.536 0.8725 19.016C0.8725 7.688 6.5685 0.775997 16.8725 0.775997C27.1765 0.775997 32.8725 7.688 32.8725 19.016ZM49.5815 0.775997C57.8375 0.775997 63.2775 3.976 63.2775 10.504C63.2775 16.968 56.0455 22.472 50.9895 25.8L44.2055 30.28H57.0695L62.7015 27.72V37H37.4215L37.4855 32.584L47.0855 23.24C51.1815 19.208 53.3575 14.856 53.3575 10.696C53.3575 7.048 52.9095 3.336 49.0695 3.336H48.9415C45.7415 3.336 44.0135 5.512 42.9895 11.464L37.3575 7.88C38.3175 5.384 41.9655 0.775997 49.4535 0.775997H49.5815Z"/>
</mask>
<path d="M25.9525 19.016C25.9525 14.2241 25.3221 9.90642 24.0818 6.67031C22.9518 3.72223 20.737 0.335999 16.8725 0.335999V6.336C16.8744 6.336 16.8746 6.33609 16.8735 6.33597C16.873 6.33592 16.8725 6.33585 16.8721 6.33577C16.8718 6.33573 16.8716 6.33569 16.8715 6.33566C16.8714 6.33564 16.8713 6.33562 16.8713 6.33562C16.8713 6.33562 16.8714 6.33564 16.8716 6.33569C16.8718 6.33574 16.8721 6.33583 16.8725 6.33596C16.8734 6.33621 16.8749 6.33666 16.877 6.33741C16.8812 6.33886 16.8886 6.3417 16.8995 6.34685C16.9422 6.36702 17.0538 6.43058 17.2204 6.60037C17.5745 6.96119 18.0339 7.65596 18.4792 8.81769C19.3669 11.1336 19.9525 14.6559 19.9525 19.016H25.9525ZM16.8725 0.335999C13.008 0.335999 10.7932 3.72222 9.66322 6.67031C8.42286 9.90642 7.7925 14.2241 7.7925 19.016H13.7925C13.7925 14.6559 14.3781 11.1336 15.2658 8.81769C15.7111 7.65596 16.1705 6.96119 16.5246 6.60038C16.6912 6.43058 16.8028 6.36702 16.8455 6.34685C16.8564 6.3417 16.8638 6.33886 16.868 6.33741C16.8701 6.33666 16.8716 6.33621 16.8725 6.33596C16.8729 6.33583 16.8732 6.33574 16.8734 6.33569C16.8736 6.33564 16.8737 6.33562 16.8737 6.33562C16.8737 6.33562 16.8736 6.33564 16.8735 6.33566C16.8734 6.33569 16.8732 6.33573 16.8729 6.33577C16.8725 6.33585 16.872 6.33592 16.8715 6.33597C16.8704 6.33609 16.8706 6.336 16.8725 6.336V0.335999ZM7.7925 19.016C7.7925 23.8974 8.42131 28.2482 9.66219 31.495C10.7977 34.466 13.0151 37.824 16.8725 37.824V31.824C16.8709 31.824 16.8699 31.824 16.8693 31.8239C16.869 31.8239 16.8688 31.8239 16.8687 31.8239C16.8686 31.8239 16.8685 31.8239 16.8685 31.8239C16.8685 31.8239 16.8685 31.8239 16.8685 31.8239C16.8686 31.8239 16.8686 31.8239 16.8686 31.8239C16.8687 31.8239 16.8686 31.8239 16.8683 31.8238C16.8679 31.8237 16.8656 31.8232 16.8612 31.8216C16.8567 31.8201 16.849 31.8172 16.8381 31.8121C16.7956 31.7921 16.6852 31.7296 16.5204 31.5624C16.1697 31.2065 15.7116 30.5168 15.2668 29.353C14.3797 27.0318 13.7925 23.4786 13.7925 19.016H7.7925ZM16.8725 37.824C20.7299 37.824 22.9473 34.466 24.0828 31.495C25.3237 28.2482 25.9525 23.8974 25.9525 19.016H19.9525C19.9525 23.4786 19.3653 27.0318 18.4782 29.353C18.0334 30.5168 17.5753 31.2065 17.2246 31.5624C17.0598 31.7296 16.9494 31.7921 16.9069 31.8121C16.896 31.8172 16.8883 31.8201 16.8838 31.8216C16.8794 31.8232 16.8771 31.8237 16.8767 31.8238C16.8764 31.8239 16.8763 31.8239 16.8764 31.8239C16.8764 31.8239 16.8764 31.8239 16.8765 31.8239C16.8765 31.8239 16.8765 31.8239 16.8765 31.8239C16.8765 31.8239 16.8764 31.8239 16.8763 31.8239C16.8762 31.8239 16.876 31.8239 16.8757 31.8239C16.8751 31.824 16.8741 31.824 16.8725 31.824V37.824ZM29.8725 19.016C29.8725 24.3204 28.5594 28.1262 26.4624 30.5634C24.4227 32.934 21.3209 34.384 16.8725 34.384V40.384C22.7281 40.384 27.6263 38.41 31.0106 34.4766C34.3377 30.6098 35.8725 25.2316 35.8725 19.016H29.8725ZM16.8725 34.384C12.4241 34.384 9.32231 32.934 7.2826 30.5634C5.18565 28.1262 3.8725 24.3204 3.8725 19.016H-2.1275C-2.1275 25.2316 -0.592648 30.6098 2.7344 34.4766C6.11869 38.41 11.0169 40.384 16.8725 40.384V34.384ZM3.8725 19.016C3.8725 13.8187 5.18027 10.0419 7.28014 7.6075C9.32484 5.2371 12.4319 3.776 16.8725 3.776V-2.224C11.0091 -2.224 6.11616 -0.229102 2.73686 3.68849C-0.587266 7.54213 -2.1275 12.8853 -2.1275 19.016H3.8725ZM16.8725 3.776C21.3131 3.776 24.4202 5.2371 26.4649 7.6075C28.5647 10.0419 29.8725 13.8187 29.8725 19.016H35.8725C35.8725 12.8853 34.3323 7.54213 31.0081 3.68849C27.6288 -0.229102 22.7359 -2.224 16.8725 -2.224V3.776ZM50.9895 25.8L49.3401 23.2941L49.3363 23.2966L50.9895 25.8ZM44.2055 30.28L42.5523 27.7766L34.2186 33.28H44.2055V30.28ZM57.0695 30.28V33.28H57.7193L58.3109 33.0111L57.0695 30.28ZM62.7015 27.72H65.7015V23.061L61.4601 24.9889L62.7015 27.72ZM62.7015 37V40H65.7015V37H62.7015ZM37.4215 37L34.4218 36.9565L34.3777 40H37.4215V37ZM37.4855 32.584L35.393 30.4342L34.5038 31.2997L34.4858 32.5405L37.4855 32.584ZM47.0855 23.24L49.178 25.3898L49.184 25.3839L49.1901 25.378L47.0855 23.24ZM42.9895 11.464L41.3789 13.995L45.1818 16.415L45.9461 11.9727L42.9895 11.464ZM37.3575 7.88L34.5575 6.80306L33.6765 9.09349L35.7469 10.411L37.3575 7.88ZM49.5815 3.776C53.3913 3.776 56.1403 4.52546 57.8461 5.67787C59.393 6.72297 60.2775 8.21302 60.2775 10.504H66.2775C66.2775 6.26698 64.442 2.89302 61.2049 0.706126C58.1267 -1.37346 54.0277 -2.224 49.5815 -2.224V3.776ZM60.2775 10.504C60.2775 12.6085 59.0793 14.891 56.8419 17.2751C54.648 19.6129 51.8133 21.6662 49.3401 23.2941L52.6389 28.3059C55.2217 26.6058 58.531 24.2431 61.2171 21.3809C63.8597 18.565 66.2775 14.8635 66.2775 10.504H60.2775ZM49.3363 23.2966L42.5523 27.7766L45.8587 32.7834L52.6427 28.3034L49.3363 23.2966ZM44.2055 33.28H57.0695V27.28H44.2055V33.28ZM58.3109 33.0111L63.9429 30.4511L61.4601 24.9889L55.8281 27.5489L58.3109 33.0111ZM59.7015 27.72V37H65.7015V27.72H59.7015ZM62.7015 34H37.4215V40H62.7015V34ZM40.4212 37.0435L40.4852 32.6275L34.4858 32.5405L34.4218 36.9565L40.4212 37.0435ZM39.578 34.7338L49.178 25.3898L44.993 21.0902L35.393 30.4342L39.578 34.7338ZM49.1901 25.378C53.6354 21.0021 56.3575 15.927 56.3575 10.696H50.3575C50.3575 13.785 48.7276 17.4139 44.9809 21.102L49.1901 25.378ZM56.3575 10.696C56.3575 8.8803 56.2705 6.47582 55.4118 4.46817C54.9541 3.39817 54.2267 2.31334 53.0731 1.51054C51.9044 0.697295 50.5315 0.335999 49.0695 0.335999V6.336C49.3078 6.336 49.4535 6.36471 49.5312 6.38694C49.6046 6.40794 49.6351 6.42793 49.6459 6.43546C49.6563 6.44265 49.7609 6.51382 49.8952 6.82783C50.2205 7.58817 50.3575 8.8637 50.3575 10.696H56.3575ZM49.0695 0.335999H48.9415V6.336H49.0695V0.335999ZM48.9415 0.335999C46.5012 0.335999 44.3314 1.24559 42.7441 3.37518C41.345 5.25237 40.5637 7.87014 40.0329 10.9553L45.9461 11.9727C46.4393 9.10586 47.034 7.65963 47.5549 6.96082C47.8876 6.5144 48.1818 6.336 48.9415 6.336V0.335999ZM44.6001 8.93301L38.9681 5.34901L35.7469 10.411L41.3789 13.995L44.6001 8.93301ZM40.1575 8.95694C40.7395 7.44376 43.385 3.776 49.4535 3.776V-2.224C40.546 -2.224 35.8955 3.32424 34.5575 6.80306L40.1575 8.95694ZM49.4535 3.776H49.5815V-2.224H49.4535V3.776Z" fill="white" mask="url(#path-1-outside-1_285_186)"/>
</svg>
