<svg width="40" height="7" viewBox="0 0 63 38" fill="none" xmlns="http://www.w3.org/2000/svg">
<mask id="path-1-outside-1_285_457" maskUnits="userSpaceOnUse" x="-3" y="-3" width="69" height="44" fill="black">
<rect fill="white" x="-3" y="-3" width="69" height="50"/>
<path d="M22.9838 19.016C22.9838 9.864 20.5518 3.336 16.9038 3.336C13.2558 3.336 10.8238 9.864 10.8238 19.016C10.8238 28.36 13.2558 34.824 16.9038 34.824C20.5518 34.824 22.9838 28.36 22.9838 19.016ZM32.9038 19.016C32.9038 30.536 27.2078 37.384 16.9038 37.384C6.59975 37.384 0.90375 30.536 0.90375 19.016C0.90375 7.688 6.59975 0.775997 16.9038 0.775997C27.2078 0.775997 32.9038 7.688 32.9038 19.016ZM39.3088 10.44V1.16H60.7488V7.048L49.1648 17.992C57.2288 17.864 62.7328 20.744 62.7328 27.4C62.7328 35.016 55.5648 37.384 47.1168 37.384H46.9888C43.9808 37.384 39.7568 36.36 37.0688 34.952L39.3728 29.32C42.5088 34.248 44.8128 34.824 46.6048 34.824H46.7328C50.5728 34.824 52.8128 32.2 52.8128 28.232C52.8128 22.664 49.8688 20.232 44.5568 20.552L44.3648 18.248L55.2448 7.88H44.9408L39.3088 10.44Z"/>
</mask>
<path d="M25.9838 19.016C25.9838 14.2241 25.3534 9.90642 24.113 6.67031C22.9831 3.72223 20.7682 0.335999 16.9038 0.335999V6.336C16.9057 6.336 16.9058 6.33609 16.9047 6.33597C16.9043 6.33592 16.9038 6.33585 16.9033 6.33577C16.9031 6.33573 16.9029 6.33569 16.9028 6.33566C16.9026 6.33564 16.9025 6.33562 16.9025 6.33562C16.9025 6.33562 16.9026 6.33564 16.9028 6.33569C16.903 6.33574 16.9034 6.33583 16.9038 6.33596C16.9047 6.33621 16.9062 6.33666 16.9083 6.33741C16.9124 6.33886 16.9199 6.3417 16.9308 6.34685C16.9735 6.36702 17.085 6.43058 17.2517 6.60037C17.6058 6.96119 18.0652 7.65596 18.5105 8.81769C19.3981 11.1336 19.9838 14.6559 19.9838 19.016H25.9838ZM16.9038 0.335999C13.0393 0.335999 10.8244 3.72222 9.69447 6.67031C8.45411 9.90642 7.82375 14.2241 7.82375 19.016H13.8238C13.8238 14.6559 14.4094 11.1336 15.297 8.81769C15.7423 7.65596 16.2017 6.96119 16.5558 6.60038C16.7225 6.43058 16.834 6.36702 16.8767 6.34685C16.8876 6.3417 16.8951 6.33886 16.8992 6.33741C16.9014 6.33666 16.9028 6.33621 16.9037 6.33596C16.9041 6.33583 16.9045 6.33574 16.9047 6.33569C16.9049 6.33564 16.905 6.33562 16.905 6.33562C16.905 6.33562 16.9049 6.33564 16.9048 6.33566C16.9046 6.33569 16.9044 6.33573 16.9042 6.33577C16.9037 6.33585 16.9032 6.33592 16.9028 6.33597C16.9017 6.33609 16.9018 6.336 16.9038 6.336V0.335999ZM7.82375 19.016C7.82375 23.8974 8.45256 28.2482 9.69344 31.495C10.8289 34.466 13.0463 37.824 16.9038 37.824V31.824C16.9022 31.824 16.9011 31.824 16.9005 31.8239C16.9002 31.8239 16.9 31.8239 16.8999 31.8239C16.8998 31.8239 16.8997 31.8239 16.8997 31.8239C16.8997 31.8239 16.8997 31.8239 16.8998 31.8239C16.8998 31.8239 16.8999 31.8239 16.8999 31.8239C16.9 31.8239 16.8999 31.8239 16.8996 31.8238C16.8991 31.8237 16.8969 31.8232 16.8924 31.8216C16.8879 31.8201 16.8803 31.8172 16.8694 31.8121C16.8268 31.7921 16.7165 31.7296 16.5516 31.5624C16.201 31.2065 15.7428 30.5168 15.2981 29.353C14.4109 27.0318 13.8238 23.4786 13.8238 19.016H7.82375ZM16.9038 37.824C20.7612 37.824 22.9786 34.466 24.1141 31.495C25.3549 28.2482 25.9838 23.8974 25.9838 19.016H19.9838C19.9838 23.4786 19.3966 27.0318 18.5094 29.353C18.0647 30.5168 17.6065 31.2065 17.2559 31.5624C17.091 31.7296 16.9807 31.7921 16.9381 31.8121C16.9272 31.8172 16.9196 31.8201 16.9151 31.8216C16.9107 31.8232 16.9084 31.8237 16.9079 31.8238C16.9076 31.8239 16.9075 31.8239 16.9076 31.8239C16.9076 31.8239 16.9077 31.8239 16.9077 31.8239C16.9078 31.8239 16.9078 31.8239 16.9078 31.8239C16.9078 31.8239 16.9077 31.8239 16.9076 31.8239C16.9075 31.8239 16.9073 31.8239 16.907 31.8239C16.9064 31.824 16.9054 31.824 16.9038 31.824V37.824ZM29.9038 19.016C29.9038 24.3204 28.5906 28.1262 26.4937 30.5634C24.4539 32.934 21.3522 34.384 16.9038 34.384V40.384C22.7593 40.384 27.6576 38.41 31.0419 34.4766C34.3689 30.6098 35.9038 25.2316 35.9038 19.016H29.9038ZM16.9038 34.384C12.4553 34.384 9.35356 32.934 7.31385 30.5634C5.2169 28.1262 3.90375 24.3204 3.90375 19.016H-2.09625C-2.09625 25.2316 -0.561398 30.6098 2.76565 34.4766C6.14994 38.41 11.0482 40.384 16.9038 40.384V34.384ZM3.90375 19.016C3.90375 13.8187 5.21152 10.0419 7.31139 7.6075C9.35609 5.2371 12.4632 3.776 16.9038 3.776V-2.224C11.0403 -2.224 6.14741 -0.229102 2.76811 3.68849C-0.556016 7.54213 -2.09625 12.8853 -2.09625 19.016H3.90375ZM16.9038 3.776C21.3443 3.776 24.4514 5.2371 26.4961 7.6075C28.596 10.0419 29.9038 13.8187 29.9038 19.016H35.9038C35.9038 12.8853 34.3635 7.54213 31.0394 3.68849C27.6601 -0.229102 22.7672 -2.224 16.9038 -2.224V3.776ZM39.3088 10.44H36.3088V15.099L40.5502 13.1711L39.3088 10.44ZM39.3088 1.16V-1.84H36.3088V1.16H39.3088ZM60.7488 1.16H63.7488V-1.84H60.7488V1.16ZM60.7488 7.048L62.809 9.2287L63.7488 8.34085V7.048H60.7488ZM49.1648 17.992L47.1045 15.8113L41.4915 21.1142L49.2124 20.9916L49.1648 17.992ZM37.0688 34.952L34.2921 33.8161L33.2585 36.3428L35.6767 37.6095L37.0688 34.952ZM39.3728 29.32L41.9037 27.7094L38.7912 22.8183L36.5961 28.1841L39.3728 29.32ZM44.5568 20.552L41.5671 20.8011L41.8106 23.7229L44.7371 23.5466L44.5568 20.552ZM44.3648 18.248L42.2951 16.0762L41.2559 17.0665L41.3751 18.4971L44.3648 18.248ZM55.2448 7.88L57.3144 10.0518L62.7416 4.88H55.2448V7.88ZM44.9408 7.88V4.88H44.2909L43.6993 5.1489L44.9408 7.88ZM42.3088 10.44V1.16H36.3088V10.44H42.3088ZM39.3088 4.16H60.7488V-1.84H39.3088V4.16ZM57.7488 1.16V7.048H63.7488V1.16H57.7488ZM58.6885 4.86729L47.1045 15.8113L51.225 20.1727L62.809 9.2287L58.6885 4.86729ZM49.2124 20.9916C52.9563 20.9322 55.6677 21.5914 57.3479 22.6739C58.8392 23.6347 59.7328 25.0487 59.7328 27.4H65.7328C65.7328 23.0953 63.8743 19.7413 60.5976 17.6301C57.5098 15.6406 53.4372 14.9238 49.1171 14.9924L49.2124 20.9916ZM59.7328 27.4C59.7328 28.8148 59.4062 29.828 58.9331 30.5889C58.4537 31.3598 57.7198 32.0377 56.6629 32.6106C54.4649 33.8023 51.1546 34.384 47.1168 34.384V40.384C51.5269 40.384 56.0246 39.7817 59.5226 37.8854C61.3137 36.9143 62.8998 35.5722 64.0284 33.7571C65.1633 31.932 65.7328 29.7932 65.7328 27.4H59.7328ZM47.1168 34.384H46.9888V40.384H47.1168V34.384ZM46.9888 34.384C44.459 34.384 40.7134 33.4745 38.4608 32.2945L35.6767 37.6095C38.8001 39.2455 43.5025 40.384 46.9888 40.384V34.384ZM39.8454 36.0879L42.1494 30.4559L36.5961 28.1841L34.2921 33.8161L39.8454 36.0879ZM36.8418 30.9306C38.5417 33.602 40.1848 35.3688 41.8799 36.4496C43.6713 37.5917 45.2948 37.824 46.6048 37.824V31.824C46.1227 31.824 45.6982 31.7683 45.1056 31.3904C44.4167 30.9512 43.3398 29.966 41.9037 27.7094L36.8418 30.9306ZM46.6048 37.824H46.7328V31.824H46.6048V37.824ZM46.7328 37.824C49.3726 37.824 51.7497 36.8982 53.4396 35.0263C55.0943 33.1934 55.8128 30.7633 55.8128 28.232H49.8128C49.8128 29.6687 49.4112 30.5346 48.9859 31.0057C48.5958 31.4378 47.9329 31.824 46.7328 31.824V37.824ZM55.8128 28.232C55.8128 24.9571 54.9412 21.9924 52.6872 19.9573C50.4592 17.9457 47.4618 17.3716 44.3764 17.5574L44.7371 23.5466C46.9637 23.4124 48.0943 23.8943 48.6663 24.4107C49.2123 24.9036 49.8128 25.9389 49.8128 28.232H55.8128ZM47.5464 20.3029L47.3544 17.9989L41.3751 18.4971L41.5671 20.8011L47.5464 20.3029ZM46.4344 20.4198L57.3144 10.0518L53.1751 5.70819L42.2951 16.0762L46.4344 20.4198ZM55.2448 4.88H44.9408V10.88H55.2448V4.88ZM43.6993 5.1489L38.0673 7.7089L40.5502 13.1711L46.1822 10.6111L43.6993 5.1489Z" fill="white" mask="url(#path-1-outside-1_285_457)"/>
</svg>
