<svg width="40" height="7" viewBox="0 0 64 38" fill="none" xmlns="http://www.w3.org/2000/svg">
<mask id="path-1-outside-1_285_1008" maskUnits="userSpaceOnUse" x="-3" y="-3" width="70" height="44" fill="black">
<rect fill="white" x="-3" y="-3" width="70" height="50"/>
<path d="M22.7338 19.016C22.7338 9.864 20.3018 3.336 16.6538 3.336C13.0058 3.336 10.5738 9.864 10.5738 19.016C10.5738 28.36 13.0058 34.824 16.6538 34.824C20.3018 34.824 22.7338 28.36 22.7338 19.016ZM32.6538 19.016C32.6538 30.536 26.9578 37.384 16.6538 37.384C6.34975 37.384 0.65375 30.536 0.65375 19.016C0.65375 7.688 6.34975 0.775997 16.6538 0.775997C26.9578 0.775997 32.6538 7.688 32.6538 19.016ZM59.6668 1.16V26.056H63.9548V28.616H59.6668V32.328L60.4988 37H49.5548L50.3868 32.328V28.616H37.4588V24.84L53.7148 1.16H59.6668ZM40.0188 26.056H50.3868V10.312L40.0188 25.48V26.056Z"/>
</mask>
<path d="M25.7338 19.016C25.7338 14.2241 25.1034 9.90642 23.863 6.67031C22.7331 3.72223 20.5182 0.335999 16.6538 0.335999V6.336C16.6557 6.336 16.6558 6.33609 16.6547 6.33597C16.6543 6.33592 16.6538 6.33585 16.6533 6.33577C16.6531 6.33573 16.6529 6.33569 16.6528 6.33566C16.6526 6.33564 16.6525 6.33562 16.6525 6.33562C16.6525 6.33562 16.6526 6.33564 16.6528 6.33569C16.653 6.33574 16.6534 6.33583 16.6538 6.33596C16.6547 6.33621 16.6562 6.33666 16.6583 6.33741C16.6624 6.33886 16.6699 6.3417 16.6808 6.34685C16.7235 6.36702 16.835 6.43058 17.0017 6.60037C17.3558 6.96119 17.8152 7.65596 18.2605 8.81769C19.1481 11.1336 19.7338 14.6559 19.7338 19.016H25.7338ZM16.6538 0.335999C12.7893 0.335999 10.5744 3.72222 9.44447 6.67031C8.20411 9.90642 7.57375 14.2241 7.57375 19.016H13.5738C13.5738 14.6559 14.1594 11.1336 15.047 8.81769C15.4923 7.65596 15.9517 6.96119 16.3058 6.60038C16.4725 6.43058 16.584 6.36702 16.6267 6.34685C16.6376 6.3417 16.6451 6.33886 16.6492 6.33741C16.6514 6.33666 16.6528 6.33621 16.6537 6.33596C16.6541 6.33583 16.6545 6.33574 16.6547 6.33569C16.6549 6.33564 16.655 6.33562 16.655 6.33562C16.655 6.33562 16.6549 6.33564 16.6548 6.33566C16.6546 6.33569 16.6544 6.33573 16.6542 6.33577C16.6537 6.33585 16.6532 6.33592 16.6528 6.33597C16.6517 6.33609 16.6518 6.336 16.6538 6.336V0.335999ZM7.57375 19.016C7.57375 23.8974 8.20256 28.2482 9.44344 31.495C10.5789 34.466 12.7963 37.824 16.6538 37.824V31.824C16.6522 31.824 16.6511 31.824 16.6505 31.8239C16.6502 31.8239 16.65 31.8239 16.6499 31.8239C16.6498 31.8239 16.6497 31.8239 16.6497 31.8239C16.6497 31.8239 16.6497 31.8239 16.6498 31.8239C16.6498 31.8239 16.6499 31.8239 16.6499 31.8239C16.65 31.8239 16.6499 31.8239 16.6496 31.8238C16.6491 31.8237 16.6469 31.8232 16.6424 31.8216C16.6379 31.8201 16.6303 31.8172 16.6194 31.8121C16.5768 31.7921 16.4665 31.7296 16.3016 31.5624C15.951 31.2065 15.4928 30.5168 15.0481 29.353C14.1609 27.0318 13.5738 23.4786 13.5738 19.016H7.57375ZM16.6538 37.824C20.5112 37.824 22.7286 34.466 23.8641 31.495C25.1049 28.2482 25.7338 23.8974 25.7338 19.016H19.7338C19.7338 23.4786 19.1466 27.0318 18.2594 29.353C17.8147 30.5168 17.3565 31.2065 17.0059 31.5624C16.841 31.7296 16.7307 31.7921 16.6881 31.8121C16.6772 31.8172 16.6696 31.8201 16.6651 31.8216C16.6607 31.8232 16.6584 31.8237 16.6579 31.8238C16.6576 31.8239 16.6575 31.8239 16.6576 31.8239C16.6576 31.8239 16.6577 31.8239 16.6577 31.8239C16.6578 31.8239 16.6578 31.8239 16.6578 31.8239C16.6578 31.8239 16.6577 31.8239 16.6576 31.8239C16.6575 31.8239 16.6573 31.8239 16.657 31.8239C16.6564 31.824 16.6554 31.824 16.6538 31.824V37.824ZM29.6538 19.016C29.6538 24.3204 28.3406 28.1262 26.2437 30.5634C24.2039 32.934 21.1022 34.384 16.6538 34.384V40.384C22.5093 40.384 27.4076 38.41 30.7919 34.4766C34.1189 30.6098 35.6538 25.2316 35.6538 19.016H29.6538ZM16.6538 34.384C12.2053 34.384 9.10356 32.934 7.06385 30.5634C4.9669 28.1262 3.65375 24.3204 3.65375 19.016H-2.34625C-2.34625 25.2316 -0.811398 30.6098 2.51565 34.4766C5.89994 38.41 10.7982 40.384 16.6538 40.384V34.384ZM3.65375 19.016C3.65375 13.8187 4.96152 10.0419 7.06139 7.6075C9.10609 5.2371 12.2132 3.776 16.6538 3.776V-2.224C10.7903 -2.224 5.89741 -0.229102 2.51811 3.68849C-0.806016 7.54213 -2.34625 12.8853 -2.34625 19.016H3.65375ZM16.6538 3.776C21.0943 3.776 24.2014 5.2371 26.2461 7.6075C28.346 10.0419 29.6538 13.8187 29.6538 19.016H35.6538C35.6538 12.8853 34.1135 7.54213 30.7894 3.68849C27.4101 -0.229102 22.5172 -2.224 16.6538 -2.224V3.776ZM59.6668 1.16H62.6668V-1.84H59.6668V1.16ZM59.6668 26.056H56.6668V29.056H59.6668V26.056ZM63.9548 26.056H66.9548V23.056H63.9548V26.056ZM63.9548 28.616V31.616H66.9548V28.616H63.9548ZM59.6668 28.616V25.616H56.6668V28.616H59.6668ZM59.6668 32.328H56.6668V32.593L56.7132 32.854L59.6668 32.328ZM60.4988 37V40H64.0802L63.4523 36.474L60.4988 37ZM49.5548 37L46.6012 36.474L45.9733 40H49.5548V37ZM50.3868 32.328L53.3403 32.854L53.3868 32.593V32.328H50.3868ZM50.3868 28.616H53.3868V25.616H50.3868V28.616ZM37.4588 28.616H34.4588V31.616H37.4588V28.616ZM37.4588 24.84L34.9855 23.1421L34.4588 23.9094V24.84H37.4588ZM53.7148 1.16V-1.84H52.1353L51.2415 -0.537884L53.7148 1.16ZM40.0188 26.056H37.0188V29.056H40.0188V26.056ZM50.3868 26.056V29.056H53.3868V26.056H50.3868ZM50.3868 10.312H53.3868V0.606875L47.9101 8.61907L50.3868 10.312ZM40.0188 25.48L37.5421 23.7871L37.0188 24.5527V25.48H40.0188ZM56.6668 1.16V26.056H62.6668V1.16H56.6668ZM59.6668 29.056H63.9548V23.056H59.6668V29.056ZM60.9548 26.056V28.616H66.9548V26.056H60.9548ZM63.9548 25.616H59.6668V31.616H63.9548V25.616ZM56.6668 28.616V32.328H62.6668V28.616H56.6668ZM56.7132 32.854L57.5452 37.526L63.4523 36.474L62.6203 31.802L56.7132 32.854ZM60.4988 34H49.5548V40H60.4988V34ZM52.5083 37.526L53.3403 32.854L47.4332 31.802L46.6012 36.474L52.5083 37.526ZM53.3868 32.328V28.616H47.3868V32.328H53.3868ZM50.3868 25.616H37.4588V31.616H50.3868V25.616ZM40.4588 28.616V24.84H34.4588V28.616H40.4588ZM39.932 26.5379L56.188 2.85788L51.2415 -0.537884L34.9855 23.1421L39.932 26.5379ZM53.7148 4.16H59.6668V-1.84H53.7148V4.16ZM40.0188 29.056H50.3868V23.056H40.0188V29.056ZM53.3868 26.056V10.312H47.3868V26.056H53.3868ZM47.9101 8.61907L37.5421 23.7871L42.4954 27.1729L52.8634 12.0049L47.9101 8.61907ZM37.0188 25.48V26.056H43.0188V25.48H37.0188Z" fill="white" mask="url(#path-1-outside-1_285_1008)"/>
</svg>
