<?xml version="1.0" encoding="utf-8"?>
<!-- Generator: Adobe Illustrator 28.1.0, SVG Export Plug-In . SVG Version: 6.00 Build 0)  -->
<svg version="1.1" id="Layer_1" xmlns="http://www.w3.org/2000/svg" xmlns:xlink="http://www.w3.org/1999/xlink" x="0px" y="0px"
	 viewBox="0 0 595.28 533.89" style="enable-background:new 0 0 595.28 533.89;" xml:space="preserve">
<style type="text/css">
	.st0{fill:#F2F2F2;}
</style>
<g>
	<g>
		<path class="st0" d="M357.03,463.45c-39.43,0-78.86,0-118.29,0c-2.41-0.21-4.81-0.54-7.22-0.61c-15.61-0.42-31.2-1.04-46.49-4.73
			c-32.56-7.86-56.74-26.31-71.13-56.77c-8.92-18.87-11.59-39.17-11.8-59.77c-0.44-42.36-0.83-84.72-0.63-127.08
			c0.1-20.31,0.23-40.73,5.15-60.67c8.59-34.73,28.84-59.61,62.28-73.19c17.96-7.29,36.9-9.34,56.03-9.54
			c39.93-0.43,79.87-0.77,119.8-0.62c20.96,0.08,42.04-0.05,62.69,4.45c38.12,8.31,64.82,30.14,78.24,67.23
			c6.44,17.81,7.98,36.43,8.04,55.16c0.15,45.31,0.27,90.62-0.09,135.92c-0.1,12.87-1.12,25.86-3.11,38.57
			c-4.07,26.04-15.78,48.22-36.35,65.19c-20.06,16.55-43.77,23.19-69.2,24.9C375.66,462.53,366.34,462.94,357.03,463.45z
			 M297.88,428.7c0-0.2,0.01-0.4,0.01-0.61c10.37,0,20.75,0.31,31.1-0.06c22.36-0.81,44.9-0.52,67.02-3.33
			c30.24-3.84,50.65-21.33,58.03-51.43c2.95-12.04,3.94-24.79,4.18-37.24c0.71-36.46,0.96-72.95,0.67-109.42
			c-0.15-19.03-0.76-38.18-2.99-57.05c-3.74-31.59-23.67-53.09-54.72-59.26c-13.58-2.7-27.68-3.55-41.56-3.75
			c-36.86-0.54-73.73-0.6-110.59-0.18c-17.1,0.2-34.36,0.82-51.25,3.29c-30,4.38-50.41,23.89-56.48,53.5
			c-2.62,12.81-3.52,26.12-3.79,39.23c-0.67,31.73-0.92,63.48-0.57,95.21c0.24,21.98,0.8,44.04,2.95,65.9
			c2.22,22.5,12.94,40.8,33.11,52.43c12.34,7.11,26.01,10.08,40.05,10.58C241.32,427.52,269.6,428,297.88,428.7z"/>
		<path class="st0" d="M196.8,266.85c-0.01-55.72,45.47-101.09,101.17-100.94c55.8,0.15,100.65,44.97,100.87,100.8
			c0.22,55.67-45.15,101.16-100.92,101.19C242.18,367.93,196.81,322.59,196.8,266.85z M297.84,332.32
			c36.27,0,65.39-29.07,65.46-65.34c0.07-36.23-29.01-65.43-65.26-65.54c-36.39-0.11-65.7,29.14-65.65,65.53
			C232.43,303.21,261.59,332.32,297.84,332.32z"/>
		<path class="st0" d="M403.41,138.4c13.19,0.27,23.29,10.93,22.94,24.22c-0.34,12.95-10.96,23.03-24.03,22.81
			c-12.98-0.22-23.3-11.12-23-24.29C379.61,148.28,390.36,138.13,403.41,138.4z"/>
	</g>
</g>
</svg>
