<svg width="228" height="151" viewBox="0 0 228 151" fill="none" xmlns="http://www.w3.org/2000/svg">
<path d="M59.1776 34.4628H17.6396V6.05469H59.1776V34.4628ZM17.9676 34.1348H58.8496V6.38269H17.9676V34.1348Z" fill="#EBEBEB"/>
<path d="M20.887 7.89492C20.887 8.0584 20.8385 8.21821 20.7477 8.35413C20.6569 8.49006 20.5278 8.596 20.3768 8.65856C20.2257 8.72112 20.0595 8.73749 19.8992 8.7056C19.7389 8.6737 19.5916 8.59498 19.476 8.47938C19.3604 8.36379 19.2817 8.21651 19.2498 8.05617C19.2179 7.89584 19.2342 7.72964 19.2968 7.57861C19.3594 7.42757 19.4653 7.29848 19.6012 7.20766C19.7372 7.11684 19.897 7.06836 20.0604 7.06836C20.2797 7.06836 20.4899 7.15544 20.6449 7.31045C20.7999 7.46546 20.887 7.6757 20.887 7.89492Z" fill="#A6A6A6"/>
<path d="M24.2656 7.89493C24.2663 8.05933 24.2181 8.22022 24.1271 8.35719C24.0362 8.49416 23.9066 8.60103 23.7549 8.66424C23.6031 8.72746 23.436 8.74417 23.2747 8.71225C23.1134 8.68034 22.9653 8.60124 22.849 8.48498C22.7328 8.36873 22.6537 8.22057 22.6217 8.05929C22.5898 7.89801 22.6065 7.73089 22.6698 7.57912C22.733 7.42736 22.8398 7.29779 22.9768 7.20685C23.1138 7.11592 23.2747 7.06772 23.4391 7.06837C23.6583 7.06837 23.8685 7.15545 24.0235 7.31046C24.1785 7.46547 24.2656 7.67571 24.2656 7.89493Z" fill="#EBEBEB"/>
<path d="M27.6438 7.89492C27.6438 8.0584 27.5954 8.21821 27.5045 8.35413C27.4137 8.49006 27.2846 8.596 27.1336 8.65856C26.9826 8.72112 26.8164 8.73749 26.656 8.7056C26.4957 8.6737 26.3484 8.59498 26.2328 8.47938C26.1172 8.36379 26.0385 8.21651 26.0066 8.05617C25.9747 7.89584 25.9911 7.72964 26.0536 7.57861C26.1162 7.42757 26.2221 7.29848 26.3581 7.20766C26.494 7.11684 26.6538 7.06836 26.8173 7.06836C27.0365 7.06836 27.2467 7.15544 27.4017 7.31045C27.5568 7.46546 27.6438 7.6757 27.6438 7.89492Z" fill="white"/>
<path d="M59.0136 9.34131H17.8037V9.66931H59.0136V9.34131Z" fill="#EBEBEB"/>
<path d="M20.9723 79.7268C20.9723 79.3562 21.0215 78.3689 21.0215 77.9491C21.0215 76.1483 20.3655 75.3251 18.7025 75.2857C17.9153 75.2365 17.4463 74.7675 17.4463 74.1016C17.4463 73.4358 17.9153 72.9667 18.7025 72.9175C20.3819 72.8421 21.0215 72.0516 21.0215 70.2279C21.0215 69.8081 20.9723 68.8208 20.9723 68.4502C20.9723 66.0591 21.9858 64.5142 25.8103 63.6909C26.0704 63.6303 26.3437 63.6695 26.5763 63.8008C26.8089 63.9321 26.9837 64.1459 27.0661 64.3999C27.1486 64.6539 27.1327 64.9296 27.0216 65.1725C26.9106 65.4153 26.7124 65.6077 26.4663 65.7114C24.0719 66.4527 23.7275 67.2169 23.7275 68.8963C23.7275 69.3883 23.7767 70.2083 23.7767 70.7199C23.7767 72.6453 22.8386 73.5834 21.2084 74.1016C22.8484 74.6428 23.7767 75.5579 23.7767 77.48C23.7767 77.9983 23.7275 78.8117 23.7275 79.307C23.7275 80.9831 24.0555 81.7506 26.4663 82.4886C26.7177 82.5887 26.9217 82.7807 27.0367 83.0257C27.1518 83.2706 27.1694 83.5502 27.086 83.8076C27.0025 84.0651 26.8242 84.2812 26.5874 84.412C26.3505 84.5429 26.0727 84.5788 25.8103 84.5123C21.9858 83.6628 20.9723 82.1343 20.9723 79.7268Z" fill="#EBEBEB"/>
<path d="M35.4305 68.4404C35.4305 68.811 35.3813 69.7983 35.3813 70.2181C35.3813 72.0418 36.0373 72.8421 37.7265 72.9077C38.4908 72.9569 38.9598 73.426 38.9598 74.0918C38.9598 74.7576 38.4908 75.2267 37.7265 75.2759C36.0472 75.3251 35.3813 76.1385 35.3813 77.9392C35.3813 78.3591 35.4305 79.3464 35.4305 79.717C35.4305 82.1344 34.4203 83.653 30.5958 84.5025C30.3274 84.5895 30.0355 84.5663 29.7842 84.4381C29.533 84.3098 29.3429 84.087 29.2559 83.8186C29.1689 83.5503 29.1921 83.2583 29.3204 83.0071C29.4486 82.7558 29.6714 82.5658 29.9398 82.4788C32.308 81.7408 32.6557 80.9732 32.6557 79.2972C32.6557 78.8019 32.6065 77.9852 32.6065 77.4702C32.6065 75.5481 33.5413 74.61 35.1714 74.0918C33.5314 73.5473 32.6065 72.6355 32.6065 70.7101C32.6065 70.1919 32.6557 69.3784 32.6557 68.8864C32.6557 67.2071 32.308 66.4428 29.9398 65.7016C29.7264 65.6348 29.5408 65.4998 29.4116 65.3173C29.2824 65.1347 29.2167 64.9148 29.2248 64.6913C29.2208 64.5256 29.2566 64.3613 29.3293 64.2122C29.4019 64.0632 29.5093 63.9337 29.6423 63.8348C29.7753 63.7358 29.9301 63.6702 30.0938 63.6435C30.2574 63.6167 30.4251 63.6296 30.5827 63.6811C34.4203 64.5175 35.4305 66.0492 35.4305 68.4404Z" fill="#EBEBEB"/>
<path d="M194.658 29.3001C194.851 29.4816 194.984 29.7172 195.04 29.9757C195.096 30.2343 195.073 30.5039 194.973 30.749C194.874 30.9942 194.702 31.2034 194.482 31.3493C194.261 31.4952 194.001 31.571 193.736 31.5666C193.372 31.5738 193.019 31.4384 192.752 31.1894L186.848 25.2001C186.783 25.1804 186.763 25.1378 186.743 25.0755C186.724 25.0582 186.702 25.0439 186.678 25.0328C186.65 24.98 186.629 24.9238 186.616 24.8656C186.599 24.8576 186.584 24.8457 186.574 24.8308C186.563 24.8159 186.556 24.7985 186.553 24.7803C186.534 24.7376 186.534 24.6753 186.511 24.6556C186.488 24.636 186.468 24.5704 186.468 24.5507V24.4031C186.468 24.3604 186.448 24.3408 186.448 24.2752C186.448 24.2096 186.468 24.1932 186.468 24.1702V24.0259C186.468 23.9832 186.511 23.9603 186.511 23.9406C186.511 23.9209 186.534 23.8356 186.553 23.7733C186.573 23.711 186.573 23.7504 186.573 23.7307C186.573 23.711 186.638 23.5831 186.678 23.5404C186.678 23.5291 186.682 23.5183 186.69 23.5103C186.698 23.5023 186.709 23.4978 186.72 23.4978C186.75 23.4398 186.794 23.3901 186.848 23.3535L192.752 17.3642C193.007 17.1212 193.345 16.9856 193.697 16.9856C194.049 16.9856 194.387 17.1212 194.642 17.3642C194.769 17.4866 194.87 17.6333 194.939 17.7956C195.008 17.9579 195.043 18.1325 195.043 18.3088C195.043 18.4852 195.008 18.6598 194.939 18.8221C194.87 18.9844 194.769 19.1311 194.642 19.2535L189.676 24.2752L194.658 29.3001Z" fill="#EBEBEB"/>
<path d="M200.018 29.9727L205.164 17.735C205.224 17.5938 205.312 17.466 205.422 17.3589C205.532 17.2517 205.662 17.1673 205.805 17.1106C205.947 17.0539 206.1 17.026 206.253 17.0285C206.407 17.0309 206.558 17.0637 206.699 17.1249C206.836 17.1841 206.959 17.2697 207.063 17.3768C207.167 17.484 207.248 17.6105 207.303 17.7492C207.357 17.8878 207.384 18.0359 207.381 18.1849C207.378 18.3339 207.346 18.4808 207.286 18.6173L202.14 30.8747C202.048 31.0822 201.898 31.2583 201.707 31.3813C201.517 31.5043 201.294 31.5688 201.067 31.5668C200.923 31.5695 200.78 31.5416 200.647 31.4848C200.505 31.4294 200.375 31.3458 200.265 31.239C200.156 31.1321 200.069 31.0042 200.01 30.863C199.951 30.7218 199.922 30.5701 199.923 30.4171C199.924 30.2641 199.956 30.1129 200.018 29.9727Z" fill="#EBEBEB"/>
<path d="M217.457 25.0329C217.457 25.0381 217.455 25.0431 217.452 25.0468C217.448 25.0505 217.443 25.0526 217.438 25.0526C217.394 25.1066 217.344 25.1561 217.29 25.2002L211.386 31.1895C211.131 31.432 210.792 31.5671 210.44 31.5671C210.088 31.5671 209.749 31.432 209.494 31.1895C209.369 31.0657 209.27 30.9185 209.203 30.7564C209.135 30.5943 209.101 30.4204 209.101 30.2448C209.101 30.0692 209.135 29.8954 209.203 29.7333C209.27 29.5711 209.369 29.424 209.494 29.3002L214.473 24.2752L209.494 19.2535C209.369 19.1298 209.27 18.9826 209.203 18.8205C209.135 18.6584 209.101 18.4845 209.101 18.3089C209.101 18.1333 209.135 17.9595 209.203 17.7973C209.27 17.6352 209.369 17.488 209.494 17.3643C209.749 17.121 210.088 16.9854 210.44 16.9854C210.792 16.9854 211.131 17.121 211.386 17.3643L217.29 23.3535C217.344 23.3966 217.394 23.445 217.438 23.4979C217.457 23.4979 217.457 23.5405 217.457 23.5405C217.496 23.6017 217.531 23.6652 217.562 23.7308C217.562 23.7504 217.585 23.7504 217.585 23.7734C217.599 23.838 217.62 23.9007 217.648 23.9604C217.648 23.9833 217.667 23.9833 217.667 24.026V24.1703C217.667 24.1932 217.69 24.2556 217.69 24.2752C217.69 24.2949 217.667 24.3605 217.667 24.3802V24.5508C217.667 24.5704 217.648 24.5704 217.648 24.5934C217.622 24.6541 217.602 24.7166 217.585 24.7804C217.585 24.8033 217.562 24.8033 217.562 24.8427C217.562 24.882 217.5 24.9509 217.457 25.0329Z" fill="#EBEBEB"/>
<path d="M189.925 0H37.8936V101.696H189.925V0Z" fill="#DBDBDB"/>
<path d="M188.82 1.23975H38.999V100.456H188.82V1.23975Z" fill="#263238"/>
<path d="M209.723 125.319H18.0923V132.364H209.723V125.319Z" fill="#C7C7C7"/>
<path d="M18.0923 125.319L37.8936 101.696H189.922L209.723 125.319H18.0923Z" fill="#DBDBDB"/>
<path d="M189.915 112.405H38.4742L46.238 101.696H182.151L189.915 112.405Z" fill="#263238"/>
<path d="M187.203 108.663H41.1868L41.5016 108.227H186.888L187.203 108.663Z" fill="#37474F"/>
<path d="M184.365 104.753H44.024L44.3388 104.314H184.05L184.365 104.753Z" fill="#37474F"/>
<path d="M90.4655 122.662L95.3724 115.125H132.676L137.927 122.662H90.4655Z" fill="#263238"/>
<path d="M127.962 128.149H100.427L99.7446 125.319H128.648L127.962 128.149Z" fill="#DBDBDB"/>
<path d="M180.465 8.77734H47.3531V93.0602H180.465V8.77734Z" fill="white"/>
<path d="M180.465 8.77734H47.3531V12.0213H180.465V8.77734Z" fill="white"/>
<path d="M50.4036 10.3975C50.4036 10.5189 50.3676 10.6374 50.3002 10.7383C50.2328 10.8392 50.137 10.9178 50.0249 10.9642C49.9129 11.0106 49.7895 11.0228 49.6706 10.9991C49.5516 10.9755 49.4423 10.917 49.3565 10.8313C49.2707 10.7455 49.2123 10.6362 49.1886 10.5172C49.165 10.3982 49.1771 10.2749 49.2235 10.1628C49.27 10.0507 49.3486 9.95495 49.4494 9.88756C49.5503 9.82016 49.6689 9.78419 49.7902 9.78419C49.8709 9.78375 49.9508 9.79932 50.0254 9.82999C50.1001 9.86066 50.1678 9.90583 50.2249 9.96287C50.2819 10.0199 50.3271 10.0877 50.3578 10.1623C50.3884 10.2369 50.404 10.3169 50.4036 10.3975Z" fill="#C7C7C7"/>
<path d="M52.8996 10.3975C52.8996 10.5189 52.8637 10.6374 52.7963 10.7383C52.7289 10.8392 52.6331 10.9178 52.521 10.9642C52.4089 11.0106 52.2856 11.0228 52.1666 10.9991C52.0476 10.9755 51.9383 10.917 51.8526 10.8313C51.7668 10.7455 51.7084 10.6362 51.6847 10.5172C51.661 10.3982 51.6732 10.2749 51.7196 10.1628C51.766 10.0507 51.8446 9.95495 51.9455 9.88756C52.0464 9.82016 52.165 9.78419 52.2863 9.78419C52.3669 9.78375 52.4469 9.79932 52.5215 9.82999C52.5961 9.86066 52.6639 9.90583 52.721 9.96287C52.778 10.0199 52.8232 10.0877 52.8538 10.1623C52.8845 10.2369 52.9001 10.3169 52.8996 10.3975Z" fill="white"/>
<path d="M55.4154 10.3975C55.4154 10.5189 55.3794 10.6374 55.312 10.7383C55.2446 10.8392 55.1489 10.9178 55.0368 10.9642C54.9247 11.0106 54.8014 11.0228 54.6824 10.9991C54.5634 10.9755 54.4541 10.917 54.3683 10.8313C54.2826 10.7455 54.2241 10.6362 54.2005 10.5172C54.1768 10.3982 54.189 10.2749 54.2354 10.1628C54.2818 10.0507 54.3604 9.95495 54.4613 9.88756C54.5622 9.82016 54.6807 9.78419 54.8021 9.78419C54.8827 9.78375 54.9627 9.79932 55.0373 9.82999C55.1119 9.86066 55.1797 9.90583 55.2367 9.96287C55.2938 10.0199 55.3389 10.0877 55.3696 10.1623C55.4003 10.2369 55.4158 10.3169 55.4154 10.3975Z" fill="#455A64"/>
<path d="M59.604 26.4302H55.8582V27.5683H59.604V26.4302Z" fill="#EBEBEB"/>
<path d="M147.039 26.4302H64.0221V27.5683H147.039V26.4302Z" fill="#263238"/>
<path d="M156.456 26.4302H149.341V27.5683H156.456V26.4302Z" fill="white"/>
<path d="M59.604 31.8127H55.8582V32.9509H59.604V31.8127Z" fill="#EBEBEB"/>
<path d="M95.8644 31.8127H67.6728V32.9509H95.8644V31.8127Z" fill="#A6A6A6"/>
<path d="M159.034 53.3491H148.371V54.4873H159.034V53.3491Z" fill="#A6A6A6"/>
<path d="M90.9509 47.9634H64.0221V49.1015H90.9509V47.9634Z" fill="#A6A6A6"/>
<path d="M86.5656 37.1985H67.6728V38.3366H86.5656V37.1985Z" fill="white"/>
<path d="M158.886 37.1985H88.6615V38.3366H158.886V37.1985Z" fill="#A6A6A6"/>
<path d="M145.934 53.3491H64.0221V54.4873H145.934V53.3491Z" fill="#EBEBEB"/>
<path d="M155.662 31.8127H97.6356V32.9509H155.662V31.8127Z" fill="#263238"/>
<path d="M59.604 37.1985H55.8582V38.3366H59.604V37.1985Z" fill="#EBEBEB"/>
<path d="M59.604 42.5811H55.8582V43.7192H59.604V42.5811Z" fill="#A6A6A6"/>
<path d="M86.1556 42.5811H64.0221V43.7192H86.1556V42.5811Z" fill="#263238"/>
<path d="M89.8062 58.7317H67.6728V59.8698H89.8062V58.7317Z" fill="#263238"/>
<path d="M147.065 64.1174H87.6873V65.2556H147.065V64.1174Z" fill="#263238"/>
<path d="M84.3089 64.1174H67.6728V65.2556H84.3089V64.1174Z" fill="#A6A6A6"/>
<path d="M156.453 47.9634H92.4728V49.1015H156.453V47.9634Z" fill="#263238"/>
<path d="M152.359 42.5811H88.4056V43.7192H152.359V42.5811Z" fill="white"/>
<path d="M59.604 47.9634H55.8582V49.1015H59.604V47.9634Z" fill="#EBEBEB"/>
<path d="M59.604 53.3491H55.8582V54.4873H59.604V53.3491Z" fill="#EBEBEB"/>
<path d="M59.604 58.7317H55.8582V59.8698H59.604V58.7317Z" fill="#A6A6A6"/>
<path d="M59.604 64.1174H55.8582V65.2556H59.604V64.1174Z" fill="#EBEBEB"/>
<path d="M59.604 69.0046H55.8582V70.1428H59.604V69.0046Z" fill="#EBEBEB"/>
<path d="M107.935 69.0046H64.0221V70.1428H107.935V69.0046Z" fill="#263238"/>
<path d="M57.3408 21.0509C57.3701 21.0796 57.3902 21.1164 57.3985 21.1566C57.4068 21.1968 57.403 21.2385 57.3875 21.2765C57.372 21.3145 57.3456 21.347 57.3116 21.3699C57.2776 21.3928 57.2375 21.4051 57.1965 21.4052C57.1405 21.4054 57.0865 21.3843 57.0456 21.3461L56.1173 20.408C56.1173 20.408 56.1173 20.408 56.1009 20.3884C56.0996 20.3797 56.0996 20.3708 56.1009 20.3621C56.1009 20.3621 56.1009 20.3621 56.1009 20.3424V20.3195C56.1009 20.3195 56.1009 20.3195 56.1009 20.2998V20.2768C56.1009 20.2768 56.1009 20.2604 56.1009 20.2506C56.1003 20.2408 56.1003 20.2309 56.1009 20.2211C56.1055 20.2119 56.1123 20.204 56.1206 20.1981L57.0488 19.26C57.0885 19.222 57.1414 19.2007 57.1965 19.2007C57.2515 19.2007 57.3044 19.222 57.3441 19.26C57.3637 19.2793 57.3793 19.3022 57.3899 19.3276C57.4006 19.3529 57.4061 19.3801 57.4061 19.4076C57.4061 19.4351 57.4006 19.4623 57.3899 19.4877C57.3793 19.513 57.3637 19.536 57.3441 19.5552L56.5634 20.3424L57.3408 21.0509Z" fill="white"/>
<path d="M58.1805 21.156L58.9873 19.2339C58.9966 19.2118 59.0102 19.1917 59.0274 19.1749C59.0445 19.1581 59.0648 19.1449 59.0871 19.136C59.1094 19.1272 59.1332 19.1229 59.1572 19.1233C59.1812 19.1238 59.2048 19.129 59.2268 19.1388C59.2484 19.1477 59.268 19.1609 59.2845 19.1775C59.301 19.194 59.314 19.2137 59.3229 19.2354C59.3317 19.257 59.3362 19.2802 59.336 19.3036C59.3358 19.327 59.331 19.3501 59.3219 19.3716L58.5117 21.297C58.4976 21.3295 58.4741 21.3571 58.4444 21.3763C58.4147 21.3956 58.3799 21.4056 58.3445 21.4052C58.3228 21.4099 58.3005 21.4099 58.2789 21.4052C58.2549 21.3968 58.233 21.3834 58.2146 21.3657C58.1963 21.3481 58.182 21.3268 58.1726 21.3031C58.1633 21.2795 58.1592 21.2541 58.1605 21.2287C58.1619 21.2033 58.1687 21.1785 58.1805 21.156Z" fill="white"/>
<path d="M60.916 20.3787L60.893 20.405L59.9615 21.3431C59.9218 21.3811 59.8689 21.4024 59.8139 21.4024C59.7589 21.4024 59.706 21.3811 59.6663 21.3431C59.6466 21.3238 59.631 21.3008 59.6204 21.2755C59.6097 21.2502 59.6043 21.2229 59.6043 21.1955C59.6043 21.168 59.6097 21.1407 59.6204 21.1154C59.631 21.0901 59.6466 21.0671 59.6663 21.0479L60.4436 20.2607L59.663 19.4735C59.6434 19.4542 59.6278 19.4312 59.6171 19.4059C59.6065 19.3806 59.601 19.3533 59.601 19.3259C59.601 19.2984 59.6065 19.2711 59.6171 19.2458C59.6278 19.2205 59.6434 19.1975 59.663 19.1783C59.7027 19.1402 59.7556 19.1189 59.8106 19.1189C59.8656 19.1189 59.9185 19.1402 59.9582 19.1783L60.8864 20.1163L60.9094 20.1393C60.9154 20.1488 60.9209 20.1587 60.9258 20.1688C60.9249 20.1786 60.9249 20.1885 60.9258 20.1983V20.2213V20.2475C60.9253 20.2574 60.9253 20.2672 60.9258 20.2771L60.916 20.3787Z" fill="white"/>
<path d="M110.887 66.502H110.375V72.6454H110.887V66.502Z" fill="#EBEBEB"/>
<path d="M67.263 137.406C67.263 137.406 80.1763 131.666 82.3018 130.695C86.5658 128.75 94.2016 122.757 97.4685 120.648C99.3774 119.415 97.8522 115.246 92.0466 115.954C86.241 116.663 75.417 122.318 74.4855 121.101C73.554 119.884 88.5895 110.851 90.6986 110.123C92.8076 109.394 99.771 112.228 103.979 110.779C108.188 109.329 105.993 105.59 102.641 104.182C98.1999 102.316 89.7408 101.126 86.6281 101.126C83.5154 101.126 73.9378 108.092 73.9378 108.092C73.9378 108.092 86.8544 103.012 88.4518 102.07C90.0491 101.129 97.7374 100.981 102.598 99.2395C107.459 97.4979 104.284 92.5188 96.1565 92.591C91.3777 92.5866 86.6078 93.0014 81.9016 93.8308C79.6056 94.1785 65.7378 103.362 65.7378 103.362C65.7378 103.362 68.4241 102.782 69.513 102.418C70.602 102.054 81.4194 95.2379 82.9217 94.4442C88.5928 91.443 92.6042 87.4283 90.7937 84.8961C89.4817 83.056 81.9114 85.4078 78.2247 87.5201C73.3244 90.3245 59.4336 100.607 59.4336 100.607L76.8438 88.8551C76.8438 88.8551 75.4367 87.6874 70.7594 88.7173C67.9944 89.3274 56.6554 96.1039 54.8547 97.4782C49.4099 101.627 34.768 119.484 34.768 119.484L46.7433 134.85L67.263 137.406Z" fill="#F7A9A0"/>
<path d="M60.247 100.197C64.3536 96.7665 67.7025 92.8994 76.4437 88.7174C76.4732 88.7174 76.4437 88.6288 76.4109 88.6354C70.1789 90.2294 64.2978 95.297 60.1126 100.014C59.9748 100.188 60.083 100.332 60.247 100.197Z" fill="#263238"/>
<path d="M66.3708 103.281C70.0083 101.109 74.2166 98.1935 78.5626 96.0647C80.6946 95.0184 81.613 94.8052 84.6666 93.4703C84.6962 93.4703 84.6666 93.3915 84.6404 93.3981C81.8754 94.1 81.4194 94.018 78.451 95.1398C74.5872 96.5994 68.247 101.296 66.2462 103.14C66.0887 103.284 66.1773 103.392 66.3708 103.281Z" fill="#263238"/>
<path d="M73.0915 107.787C77.0275 106.2 81.8065 103.349 85.8671 102.037C86.8839 101.709 88.4386 101.499 90.7641 101.499C90.8888 101.499 91.043 101.362 90.7478 101.309C88.7798 100.948 86.8281 100.981 85.6145 101.309C81.6326 102.421 75.2497 106.111 72.9931 107.627C72.816 107.751 72.8849 107.873 73.0915 107.787Z" fill="#263238"/>
<path d="M67.263 137.409L59.2368 150.221H0L34.7549 119.484L64.4389 116.207L67.263 137.409Z" fill="#F7A9A0"/>
<path d="M59.2368 150.221L61.359 146.829L17.0363 135.152L0 150.221H59.2368Z" fill="white"/>
<path opacity="0.1" d="M59.2368 150.221L61.359 146.829L17.0363 135.152L0 150.221H59.2368Z" fill="black"/>
<path opacity="0.1" d="M0.383759 149.88L2.05 148.404V150.217H0.383759V149.88Z" fill="black"/>
<path opacity="0.1" d="M58.8071 146.157V150.217H57.1409V145.717L58.8071 146.157Z" fill="black"/>
<path opacity="0.1" d="M47.455 143.166L52.8802 144.596H47.455V150.218H45.7888V144.596H36.103V150.218H34.4367V144.596H24.7509V150.218H23.0846V144.596H13.4021V150.218H11.7358V144.596H6.35664L8.24264 142.929H11.7358V139.84L13.4021 138.367V142.929H23.0846V136.747L24.7509 137.186V142.929H34.4367V139.738L36.103 140.174V142.929H45.7888V142.726L46.5563 142.929H47.455V143.166Z" fill="black"/>
<path d="M9.24632 140.43L61.359 148.718L66.1674 141.302L19.7095 131.003L9.24632 140.43Z" fill="white"/>
<path d="M155.38 130.642C155.38 130.642 143.612 124.804 141.404 124.043C136.983 122.515 130.2 116.125 126.743 114.341C124.725 113.298 125.844 109.001 131.692 109.149C137.54 109.296 144.028 114.134 144.317 113.649C145.107 112.337 131.594 106.259 129.429 105.737C127.264 105.216 120.501 106.99 116.171 105.951C111.841 104.911 113.668 100.981 116.87 99.2561C121.111 96.9601 129.517 96.6911 132.614 96.3893C135.71 96.0876 145.914 102.106 145.914 102.106C145.914 102.106 132.571 98.2917 130.888 97.5144C129.206 96.737 121.54 97.3241 116.535 96.0581C111.53 94.792 114.213 89.5309 122.308 88.8224C127.065 88.3628 131.854 88.3211 136.619 88.6977C138.951 88.8224 153.622 96.6321 153.622 96.6321C153.622 96.6321 150.893 96.3041 149.775 96.0548C148.656 95.8055 137.232 90.0524 135.671 89.4062C129.731 86.9429 125.355 83.3349 126.923 80.6486C128.064 78.6806 135.812 80.3042 139.682 82.0492C144.832 84.3714 159.644 93.2701 159.644 93.2701L139.915 82.8069C139.915 82.8069 140.824 80.934 143.641 81.2062C153.707 82.1902 161.98 88.5075 163.905 89.7047C169.724 93.3127 186.015 109.68 186.015 109.68L175.828 125.319L155.38 130.642Z" fill="#F7A9A0"/>
<path d="M159.828 91.9908C155.272 89.2881 149.43 85.6965 140.338 82.3083C140.309 82.3083 140.318 82.2427 140.338 82.2492C146.547 83.6301 155.026 87.6219 159.907 91.8695C160.08 91.9974 160.015 92.0958 159.828 91.9908Z" fill="#263238"/>
<path d="M152.986 96.5861C149.158 94.7788 144.687 92.2795 140.158 90.5771C137.934 89.7407 137.002 89.6161 133.834 88.5796C133.801 88.5796 133.817 88.5009 133.854 88.5075C136.674 88.9404 137.117 88.8125 140.181 89.6456C144.166 90.728 150.929 94.792 153.097 96.4352C153.268 96.5632 153.189 96.6812 152.986 96.5861Z" fill="#263238"/>
<path d="M146.728 101.723C142.667 100.515 137.629 98.1375 133.46 97.2256C132.417 96.996 128.294 96.8353 125.978 97.0584C125.854 97.0584 125.69 96.9501 125.978 96.8681C127.913 96.3171 132.407 96.258 133.647 96.4778C137.714 97.2027 144.425 100.263 146.816 101.555C147.003 101.657 146.944 101.785 146.728 101.723Z" fill="#263238"/>
<path d="M227.816 150.273L186.015 109.68L159.726 110.828L155.38 130.642L167.264 150.273H227.816Z" fill="#F7A9A0"/>
<path d="M167.264 150.273L160.172 138.56L196.672 120.028L227.816 150.273H167.264Z" fill="white"/>
<path opacity="0.1" d="M167.264 150.273L160.172 138.56L196.672 120.028L227.816 150.273H167.264Z" fill="black"/>
<path opacity="0.1" d="M198.591 121.891H193.015L196.295 120.225H196.892L198.256 121.537L198.591 121.891ZM208.562 131.577H173.87V131.607L170.645 133.247H210.278L209.589 132.591L208.562 131.577ZM220.252 142.929H162.816L163.826 144.596H221.967L220.941 143.612L220.252 142.929ZM220.252 142.929L219.268 141.981V150.276H220.934V143.598L220.252 142.929ZM208.562 131.577L207.906 130.954V150.276H209.572V132.564L208.562 131.577ZM196.892 120.225L196.688 120.028L196.564 120.071V150.267H198.233V121.55L196.892 120.225ZM185.238 125.84V150.276H186.904V124.991L185.238 125.84ZM173.932 131.577H173.876V150.273H175.542V130.757L173.932 131.577ZM162.517 137.37V142.434L162.816 142.929L163.826 144.596L164.184 145.189V136.523L162.517 137.37Z" fill="black"/>
<path d="M157.368 137.521L163.695 146.829L207.978 128.842L195.98 118.106L157.368 137.521Z" fill="white"/>
</svg>
