<svg width="180" height="165" viewBox="0 0 180 165" fill="none" xmlns="http://www.w3.org/2000/svg">
<path d="M122.203 47.3107C113.902 40.3737 102.515 30.8081 92.7237 22.5232C82.9101 14.172 70.2551 9.92484 57.3904 10.665C43.0854 11.5425 25.2626 16.5427 12.6495 33.4762C-11.8139 66.3115 -0.888588 143.144 46.2476 157.643C93.3838 172.142 135.84 161.098 160.944 137.049C186.048 113.001 182.972 67.3352 170.996 61.8449C164.79 58.9871 155.007 57.7775 147.014 57.2716C137.894 56.678 129.202 53.1883 122.203 47.3107Z" fill="white"/>
<path opacity="0.7" d="M122.203 46.9157C113.902 39.9787 102.515 30.4131 92.7237 22.1282C82.9101 13.7769 70.2551 9.52982 57.3904 10.27C43.0854 11.1475 25.2626 16.1477 12.6495 33.0812C-11.8139 65.9164 -0.888588 142.749 46.2476 157.248C93.3838 171.747 135.84 160.703 160.944 136.654C186.048 112.606 182.972 66.9402 170.996 61.4499C164.79 58.592 155.007 57.3825 147.014 56.8766C137.894 56.283 129.202 52.7933 122.203 46.9157Z" fill="white"/>
<path d="M97.894 73.3396C94.2718 70.9092 89.931 69.7822 85.5839 70.1435C81.2368 70.5049 77.1417 72.3332 73.9705 75.3284C70.7993 78.3235 68.7404 82.3077 68.1316 86.6271C67.5229 90.9465 68.4004 95.3445 70.6202 99.0995" stroke="#263238" stroke-width="0.969642" stroke-linecap="round" stroke-linejoin="round"/>
<path d="M104.732 81.4979C104.358 80.6556 103.925 79.8407 103.436 79.0591" stroke="#263238" stroke-width="0.969642" stroke-linecap="round" stroke-linejoin="round"/>
<path d="M103.092 100.036C104.526 97.9029 105.519 95.5047 106.013 92.9824C106.507 90.4601 106.492 87.8645 105.97 85.3479" stroke="#263238" stroke-width="0.969642" stroke-linecap="round" stroke-linejoin="round"/>
<path d="M68.0549 70.1929C66.7471 71.5051 65.5751 72.9459 64.5567 74.4934" stroke="#263238" stroke-width="0.969642" stroke-linecap="round" stroke-linejoin="round"/>
<path d="M108.495 105.811C112.365 100.809 114.356 94.6064 114.122 88.2861C113.887 81.9659 111.44 75.9286 107.21 71.2273C102.979 66.5261 97.232 63.4591 90.9714 62.5615C84.7108 61.6638 78.3337 62.9924 72.9524 66.3154" stroke="#263238" stroke-width="0.969642" stroke-linecap="round" stroke-linejoin="round"/>
<path d="M65.7507 105.811C63.0809 102.355 61.2868 98.3052 60.5215 94.0061C59.7561 89.7071 60.0421 85.2866 61.3552 81.1221" stroke="#263238" stroke-width="0.969642" stroke-linecap="round" stroke-linejoin="round"/>
<path d="M57.2878 112.637C58.9676 114.783 60.8733 116.742 62.9718 118.48" stroke="#263238" stroke-width="0.969642" stroke-linecap="round" stroke-linejoin="round"/>
<path d="M108.59 58.0228C101.824 53.3888 93.7366 51.0738 85.5427 51.4249C77.3487 51.776 69.4895 54.7743 63.1438 59.9702C56.7981 65.166 52.3081 72.2791 50.3472 80.2427C48.3864 88.2063 49.0603 96.591 52.2681 104.139" stroke="#263238" stroke-width="0.969642" stroke-linecap="round" stroke-linejoin="round"/>
<path d="M122.504 75.5924C121.485 72.9662 120.176 70.4618 118.602 68.1257" stroke="#263238" stroke-width="0.969642" stroke-linecap="round" stroke-linejoin="round"/>
<path d="M113.349 116.673C117.054 113.139 120.001 108.889 122.013 104.181C124.025 99.4725 125.059 94.4047 125.053 89.2847" stroke="#263238" stroke-width="0.969642" stroke-linecap="round" stroke-linejoin="round"/>
<path d="M34.1761 89.2847C34.1762 101.863 38.63 114.035 46.7481 123.643C54.8661 133.25 66.1239 139.673 78.5257 141.773" stroke="#263238" stroke-width="0.969642" stroke-linecap="round" stroke-linejoin="round"/>
<path d="M129.911 120.958C136.395 112.184 140.028 101.629 140.317 90.7229C140.607 79.8165 137.539 69.0844 131.528 59.9787C125.518 50.8731 116.856 43.8335 106.714 39.8124C96.5715 35.7913 85.4388 34.9828 74.822 37.4963" stroke="#263238" stroke-width="0.969642" stroke-linecap="round" stroke-linejoin="round"/>
<path d="M34.1761 89.2847C34.1766 77.3525 38.1852 65.7663 45.5588 56.385C52.9324 47.0037 63.2435 40.3711 74.8378 37.5515" stroke="#263238" stroke-width="0.969642" stroke-linecap="round" stroke-linejoin="round"/>
<path d="M118.602 132.204C119.954 131.21 121.255 130.156 122.504 129.042" stroke="#263238" stroke-width="0.969642" stroke-linecap="round" stroke-linejoin="round"/>
<path d="M96.0007 141.773C102.054 140.76 107.884 138.7 113.231 135.686" stroke="#263238" stroke-width="0.969642" stroke-linecap="round" stroke-linejoin="round"/>
<path d="M87.1465 137.006C81.7558 137 76.5877 134.855 72.7759 131.044C68.9642 127.232 66.8199 122.064 66.8137 116.673V109.827C66.8137 109.533 66.9303 109.252 67.1378 109.044C67.3454 108.837 67.6269 108.72 67.9204 108.72H70.6873C70.9809 108.72 71.2624 108.837 71.4699 109.044C71.6775 109.252 71.7941 109.533 71.7941 109.827C71.7941 110.121 71.6775 110.402 71.4699 110.61C71.2624 110.817 70.9809 110.934 70.6873 110.934H69.039V116.673C69.039 121.479 70.948 126.087 74.3461 129.485C77.7441 132.883 82.3528 134.792 87.1583 134.792C91.9639 134.792 96.5726 132.883 99.9706 129.485C103.369 126.087 105.278 121.479 105.278 116.673V110.934H103.617C103.324 110.934 103.042 110.817 102.835 110.61C102.627 110.402 102.511 110.121 102.511 109.827C102.511 109.533 102.627 109.252 102.835 109.044C103.042 108.837 103.324 108.72 103.617 108.72H106.384C106.678 108.72 106.959 108.837 107.167 109.044C107.375 109.252 107.491 109.533 107.491 109.827V116.673C107.485 122.066 105.339 127.236 101.525 131.048C97.7103 134.86 92.5392 137.003 87.1465 137.006Z" fill="#263238"/>
<path d="M108.586 154.019V151.805C108.587 151.514 108.53 151.226 108.419 150.957C108.308 150.689 108.145 150.444 107.939 150.239C107.733 150.033 107.489 149.87 107.22 149.759C106.952 149.648 106.664 149.591 106.373 149.592H67.9207C67.6299 149.591 67.3418 149.648 67.073 149.759C66.8042 149.87 66.56 150.033 66.3543 150.239C66.1487 150.444 65.9856 150.689 65.8746 150.957C65.7635 151.226 65.7066 151.514 65.7072 151.805V154.019H108.586Z" fill="#263238"/>
<path d="M89.3049 152.287C89.3416 152.129 89.3601 151.967 89.3603 151.805V135.899H84.9332V151.805C84.9334 151.967 84.9519 152.129 84.9886 152.287H89.3049Z" fill="#263238"/>
<path d="M100.839 89.2846C100.87 87.4666 100.538 85.6608 99.864 83.9722C99.1896 82.2837 98.1859 80.7464 96.9112 79.4498C95.6365 78.1533 94.1164 77.1236 92.4396 76.4206C90.7628 75.7177 88.9628 75.3557 87.1446 75.3557C85.3264 75.3557 83.5264 75.7177 81.8496 76.4206C80.1728 77.1236 78.6527 78.1533 77.378 79.4498C76.1033 80.7464 75.0996 82.2837 74.4252 83.9722C73.7509 85.6608 73.4195 87.4666 73.4504 89.2846V116.673C73.5114 120.265 74.981 123.689 77.5426 126.207C80.1041 128.725 83.5524 130.136 87.1446 130.136C90.7368 130.136 94.1851 128.725 96.7467 126.207C99.3082 123.689 100.778 120.265 100.839 116.673V89.2846Z" stroke="#263238" stroke-width="0.969642" stroke-linecap="round" stroke-linejoin="round"/>
<path d="M100.839 89.2846C100.87 87.4666 100.538 85.6608 99.864 83.9722C99.1896 82.2837 98.1859 80.7464 96.9112 79.4498C95.6365 78.1533 94.1164 77.1236 92.4396 76.4206C90.7628 75.7177 88.9628 75.3557 87.1446 75.3557C85.3264 75.3557 83.5264 75.7177 81.8496 76.4206C80.1728 77.1236 78.6527 78.1533 77.378 79.4498C76.1033 80.7464 75.0996 82.2837 74.4252 83.9722C73.7509 85.6608 73.4195 87.4666 73.4504 89.2846V116.673C73.5114 120.265 74.981 123.689 77.5426 126.207C80.1041 128.725 83.5524 130.136 87.1446 130.136C90.7368 130.136 94.1851 128.725 96.7467 126.207C99.3082 123.689 100.778 120.265 100.839 116.673V89.2846Z" fill="white"/>
<mask id="mask0_53_4202" style="mask-type:luminance" maskUnits="userSpaceOnUse" x="73" y="75" width="28" height="56">
<path d="M100.839 89.2846C100.87 87.4666 100.538 85.6608 99.864 83.9722C99.1896 82.2837 98.1859 80.7464 96.9112 79.4498C95.6365 78.1533 94.1164 77.1236 92.4396 76.4206C90.7628 75.7177 88.9628 75.3557 87.1446 75.3557C85.3264 75.3557 83.5264 75.7177 81.8496 76.4206C80.1728 77.1236 78.6527 78.1533 77.378 79.4498C76.1033 80.7464 75.0996 82.2837 74.4252 83.9722C73.7509 85.6608 73.4195 87.4666 73.4504 89.2846V116.673C73.5114 120.265 74.981 123.689 77.5426 126.207C80.1041 128.725 83.5524 130.136 87.1446 130.136C90.7368 130.136 94.1851 128.725 96.7467 126.207C99.3082 123.689 100.778 120.265 100.839 116.673V89.2846Z" fill="white"/>
</mask>
<g mask="url(#mask0_53_4202)">
<path d="M81.4745 90.7275H73.4504V94.0478H81.4745C81.9148 94.0478 82.337 93.8729 82.6484 93.5616C82.9597 93.2502 83.1346 92.828 83.1346 92.3877C83.1346 91.9474 82.9597 91.5251 82.6484 91.2138C82.337 90.9024 81.9148 90.7275 81.4745 90.7275Z" fill="white"/>
<path d="M100.839 90.7275H92.8187C92.3784 90.7275 91.9562 90.9024 91.6448 91.2138C91.3335 91.5251 91.1586 91.9474 91.1586 92.3877C91.1586 92.828 91.3335 93.2502 91.6448 93.5616C91.9562 93.8729 92.3784 94.0478 92.8187 94.0478H100.839V90.7275Z" fill="white"/>
<path d="M87.1467 90.7275C86.8183 90.7275 86.4973 90.8249 86.2243 91.0073C85.9513 91.1897 85.7385 91.449 85.6129 91.7524C85.4872 92.0557 85.4544 92.3895 85.5184 92.7116C85.5825 93.0336 85.7406 93.3294 85.9728 93.5616C86.2049 93.7937 86.5007 93.9519 86.8228 94.0159C87.1448 94.08 87.4786 94.0471 87.782 93.9215C88.0853 93.7958 88.3446 93.583 88.527 93.31C88.7094 93.037 88.8068 92.716 88.8068 92.3877C88.8068 91.9474 88.6319 91.5251 88.3206 91.2138C88.0092 90.9024 87.587 90.7275 87.1467 90.7275Z" fill="white"/>
<path d="M87.1467 97.4392C86.8183 97.4392 86.4973 97.5366 86.2243 97.719C85.9513 97.9014 85.7385 98.1607 85.6129 98.464C85.4872 98.7674 85.4544 99.1012 85.5184 99.4232C85.5825 99.7453 85.7406 100.041 85.9728 100.273C86.2049 100.505 86.5007 100.664 86.8228 100.728C87.1448 100.792 87.4786 100.759 87.782 100.633C88.0853 100.507 88.3446 100.295 88.527 100.022C88.7094 99.7487 88.8068 99.4277 88.8068 99.0994C88.8068 98.6591 88.6319 98.2368 88.3206 97.9255C88.0092 97.6141 87.587 97.4392 87.1467 97.4392Z" fill="white"/>
<path d="M87.1467 104.139C86.8183 104.139 86.4973 104.237 86.2243 104.419C85.9513 104.601 85.7385 104.861 85.6129 105.164C85.4872 105.467 85.4544 105.801 85.5184 106.123C85.5825 106.445 85.7406 106.741 85.9728 106.973C86.2049 107.205 86.5007 107.363 86.8228 107.428C87.1448 107.492 87.4786 107.459 87.782 107.333C88.0853 107.207 88.3446 106.995 88.527 106.722C88.7094 106.449 88.8068 106.128 88.8068 105.799C88.8068 105.359 88.6319 104.937 88.3206 104.625C88.0092 104.314 87.587 104.139 87.1467 104.139Z" fill="white"/>
<path d="M81.4745 97.4392H73.4505V100.76H81.4745C81.9148 100.76 82.3371 100.585 82.6484 100.273C82.9598 99.9619 83.1347 99.5397 83.1347 99.0994C83.1347 98.6591 82.9598 98.2368 82.6484 97.9255C82.3371 97.6141 81.9148 97.4392 81.4745 97.4392Z" fill="white"/>
<path d="M100.839 97.4392H92.8187C92.3784 97.4392 91.9562 97.6141 91.6448 97.9255C91.3335 98.2368 91.1586 98.6591 91.1586 99.0994C91.1586 99.5397 91.3335 99.9619 91.6448 100.273C91.9562 100.585 92.3784 100.76 92.8187 100.76H100.839V97.4392Z" fill="white"/>
<path d="M81.4745 104.139H73.4505V107.459H81.4745C81.9148 107.459 82.3371 107.285 82.6484 106.973C82.9598 106.662 83.1347 106.24 83.1347 105.799C83.1347 105.359 82.9598 104.937 82.6484 104.625C82.3371 104.314 81.9148 104.139 81.4745 104.139Z" fill="white"/>
<path d="M100.839 104.139H92.8187C92.3784 104.139 91.9562 104.314 91.6448 104.625C91.3335 104.937 91.1586 105.359 91.1586 105.799C91.1586 106.24 91.3335 106.662 91.6448 106.973C91.9562 107.285 92.3784 107.459 92.8187 107.459H100.839V104.139Z" fill="white"/>
</g>
<path d="M100.839 89.2846C100.87 87.4666 100.538 85.6608 99.864 83.9722C99.1896 82.2837 98.1859 80.7464 96.9112 79.4498C95.6365 78.1533 94.1164 77.1236 92.4396 76.4206C90.7628 75.7177 88.9628 75.3557 87.1446 75.3557C85.3264 75.3557 83.5264 75.7177 81.8496 76.4206C80.1728 77.1236 78.6527 78.1533 77.378 79.4498C76.1033 80.7464 75.0996 82.2837 74.4252 83.9722C73.7509 85.6608 73.4195 87.4666 73.4504 89.2846V116.673C73.5114 120.265 74.981 123.689 77.5426 126.207C80.1041 128.725 83.5524 130.136 87.1446 130.136C90.7368 130.136 94.1851 128.725 96.7467 126.207C99.3082 123.689 100.778 120.265 100.839 116.673V89.2846Z" stroke="#263238" stroke-width="0.969642" stroke-miterlimit="10"/>
<path d="M73.4504 116.673C73.5114 120.264 74.981 123.688 77.5425 126.207C80.1041 128.725 83.5524 130.136 87.1446 130.136C90.7367 130.136 94.1851 128.725 96.7466 126.207C99.3082 123.688 100.778 120.264 100.839 116.673H73.4504Z" fill="#263238" stroke="#263238" stroke-width="0.969642" stroke-miterlimit="10"/>
<path d="M103.527 50.647V33.7808C103.527 32.9652 103.203 32.183 102.626 31.6063C102.049 31.0296 101.267 30.7056 100.451 30.7056H73.9918C73.1762 30.7056 72.394 31.0296 71.8173 31.6063C71.2406 32.183 70.9166 32.9652 70.9166 33.7808V50.647C70.9166 51.4626 71.2406 52.2448 71.8173 52.8216C72.394 53.3983 73.1762 53.7223 73.9918 53.7223H83.2056L82.4783 60.1415H87.2215V66.1931L92.8502 56.3113H88.2334L88.7196 53.7183H100.451C101.266 53.7183 102.048 53.3949 102.624 52.819C103.201 52.2431 103.525 51.462 103.527 50.647Z" fill="white" stroke="#263238" stroke-width="1.02547" stroke-linecap="round" stroke-linejoin="round"/>
<path d="M75.9684 36.4766H93.8584" stroke="#263238" stroke-width="1.02547" stroke-linecap="round" stroke-linejoin="round"/>
<path d="M75.9684 41.2556H98.4752" stroke="#263238" stroke-width="1.02547" stroke-linecap="round" stroke-linejoin="round"/>
<path d="M75.9684 46.0344H95.0126" stroke="#263238" stroke-width="1.02547" stroke-linecap="round" stroke-linejoin="round"/>
<path d="M123.737 122.867L139.722 128.195L135.757 132.164L143.157 139.563L127.172 134.235L131.137 130.267L123.737 122.867Z" fill="white" stroke="#263238" stroke-width="1.02547" stroke-linecap="round" stroke-linejoin="round"/>
<path d="M50.7065 122.867L34.7217 128.195L38.6862 132.164L31.2867 139.563L47.2715 134.235L43.307 130.267L50.7065 122.867Z" fill="white" stroke="#263238" stroke-width="1.02547" stroke-linecap="round" stroke-linejoin="round"/>
<path d="M86.7754 0.633301L79.2375 15.709H84.8504V26.1758L92.3843 11.1001H86.7754V0.633301Z" fill="white" stroke="#263238" stroke-width="1.02547" stroke-linecap="round" stroke-linejoin="round"/>
</svg>
