<?xml version="1.0" encoding="utf-8"?>
<!-- Generator: Adobe Illustrator 28.1.0, SVG Export Plug-In . SVG Version: 6.00 Build 0)  -->
<svg version="1.1" id="Layer_1" xmlns="http://www.w3.org/2000/svg" xmlns:xlink="http://www.w3.org/1999/xlink" x="0px" y="0px"
	 viewBox="0 0 595.28 533.89" style="enable-background:new 0 0 595.28 533.89;" xml:space="preserve">
<style type="text/css">
	.st0{fill:#F2F2F2;}
</style>
<g>
	<g>
		<path class="st0" d="M255.85,421.39c-6.85-1.01-13.8-1.56-20.53-3.1c-38.11-8.7-67.83-41.79-72.59-80.46
			c-6.35-51.57,28.6-98.12,80.11-106.58c9.97-1.64,20-1.87,30.15-0.07c0,16.91,0,33.69,0,50.76c-2.68-0.5-5.19-1.06-7.73-1.43
			c-24.82-3.61-48.45,13.75-51.71,37.98c-3.5,26,13.85,48.88,39.37,52.32c25.68,3.46,51.84-16.48,51.6-46.75
			c-0.28-36.64,0.01-73.29,0.03-109.93c0.02-32.52,0-65.03,0-97.55c0-1.29,0-2.58,0-4.08c16.86,0,33.42,0,49.96,0
			c0.73,5.19,1.18,10.39,2.23,15.47c7.08,34.45,37.62,60.28,72.74,61.47c3.06,0.1,3.84,0.91,3.81,3.94
			c-0.16,14.29-0.07,28.59-0.07,42.88c0,1.08,0,2.15,0,3.45c-14.42,0.15-27.99-2.23-41.24-6.68c-13.24-4.44-25.34-11.03-37-19.71
			c0,1.67,0,2.73,0,3.79c0.1,35.64,0.2,71.27,0.32,106.91c0.06,19.42-4.72,37.51-15.68,53.61c-17.86,26.26-42.76,40.71-74.48,43.26
			c-1.09,0.09-2.16,0.34-3.24,0.51C259.88,421.39,257.87,421.39,255.85,421.39z"/>
	</g>
</g>
</svg>
