<svg width="180" height="165" viewBox="0 0 180 165" fill="none" xmlns="http://www.w3.org/2000/svg">
<path d="M122.203 47.6774C113.902 40.7404 102.515 31.1748 92.7237 22.8899C82.9101 14.5387 70.2551 10.2915 57.3904 11.0317C43.0854 11.9092 25.2626 16.9094 12.6495 33.8429C-11.8139 66.6782 -0.888588 143.511 46.2476 158.01C93.3838 172.508 135.84 161.464 160.944 137.416C186.048 113.368 182.972 67.7019 170.996 62.2116C164.79 59.3538 155.007 58.1442 147.014 57.6383C137.894 57.0447 129.202 53.555 122.203 47.6774Z" fill="white"/>
<path opacity="0.7" d="M122.203 47.2824C113.902 40.3454 102.515 30.7798 92.7237 22.4949C82.9101 14.1436 70.2551 9.89652 57.3904 10.6367C43.0854 11.5142 25.2626 16.5144 12.6495 33.4479C-11.8139 66.2831 -0.888588 143.116 46.2476 157.615C93.3838 172.113 135.84 161.069 160.944 137.021C186.048 112.973 182.972 67.3069 170.996 61.8166C164.79 58.9587 155.007 57.7492 147.014 57.2433C137.894 56.6497 129.202 53.16 122.203 47.2824Z" fill="white"/>
<path d="M97.894 73.7063C94.2718 71.2759 89.931 70.1489 85.5839 70.5102C81.2368 70.8716 77.1417 72.6999 73.9705 75.6951C70.7993 78.6902 68.7404 82.6744 68.1316 86.9938C67.5229 91.3132 68.4004 95.7112 70.6202 99.4662" stroke="#263238" stroke-width="0.969642" stroke-linecap="round" stroke-linejoin="round"/>
<path d="M104.732 81.8646C104.358 81.0223 103.925 80.2074 103.436 79.4258" stroke="#263238" stroke-width="0.969642" stroke-linecap="round" stroke-linejoin="round"/>
<path d="M103.092 100.403C104.526 98.2696 105.519 95.8714 106.013 93.3491C106.507 90.8268 106.492 88.2312 105.97 85.7146" stroke="#263238" stroke-width="0.969642" stroke-linecap="round" stroke-linejoin="round"/>
<path d="M68.0549 70.5596C66.7471 71.8718 65.5751 73.3126 64.5567 74.8601" stroke="#263238" stroke-width="0.969642" stroke-linecap="round" stroke-linejoin="round"/>
<path d="M108.495 106.178C112.365 101.175 114.356 94.9731 114.122 88.6528C113.887 82.3326 111.44 76.2953 107.21 71.594C102.979 66.8928 97.232 63.8258 90.9714 62.9282C84.7108 62.0305 78.3337 63.3591 72.9524 66.6821" stroke="#263238" stroke-width="0.969642" stroke-linecap="round" stroke-linejoin="round"/>
<path d="M65.7507 106.177C63.0809 102.722 61.2868 98.6719 60.5215 94.3728C59.7561 90.0738 60.0421 85.6533 61.3552 81.4888" stroke="#263238" stroke-width="0.969642" stroke-linecap="round" stroke-linejoin="round"/>
<path d="M57.2878 113.004C58.9676 115.15 60.8733 117.108 62.9718 118.846" stroke="#263238" stroke-width="0.969642" stroke-linecap="round" stroke-linejoin="round"/>
<path d="M108.59 58.3895C101.824 53.7555 93.7366 51.4405 85.5427 51.7916C77.3487 52.1427 69.4895 55.141 63.1438 60.3369C56.7981 65.5327 52.3081 72.6458 50.3472 80.6094C48.3864 88.573 49.0603 96.9577 52.2681 104.506" stroke="#263238" stroke-width="0.969642" stroke-linecap="round" stroke-linejoin="round"/>
<path d="M122.504 75.9591C121.485 73.3329 120.176 70.8285 118.602 68.4924" stroke="#263238" stroke-width="0.969642" stroke-linecap="round" stroke-linejoin="round"/>
<path d="M113.349 117.04C117.054 113.506 120.001 109.255 122.013 104.547C124.025 99.8392 125.059 94.7713 125.053 89.6514" stroke="#263238" stroke-width="0.969642" stroke-linecap="round" stroke-linejoin="round"/>
<path d="M34.1761 89.6514C34.1762 102.23 38.63 114.402 46.7481 124.009C54.8661 133.617 66.1239 140.04 78.5257 142.14" stroke="#263238" stroke-width="0.969642" stroke-linecap="round" stroke-linejoin="round"/>
<path d="M129.911 121.325C136.395 112.55 140.028 101.996 140.317 91.0896C140.607 80.1832 137.539 69.4511 131.528 60.3454C125.518 51.2398 116.856 44.2002 106.714 40.1791C96.5715 36.158 85.4388 35.3495 74.822 37.863" stroke="#263238" stroke-width="0.969642" stroke-linecap="round" stroke-linejoin="round"/>
<path d="M34.1761 89.6514C34.1766 77.7192 38.1852 66.133 45.5588 56.7517C52.9324 47.3704 63.2435 40.7378 74.8378 37.9182" stroke="#263238" stroke-width="0.969642" stroke-linecap="round" stroke-linejoin="round"/>
<path d="M118.602 132.57C119.954 131.577 121.255 130.523 122.504 129.408" stroke="#263238" stroke-width="0.969642" stroke-linecap="round" stroke-linejoin="round"/>
<path d="M96.0007 142.14C102.054 141.126 107.884 139.066 113.231 136.052" stroke="#263238" stroke-width="0.969642" stroke-linecap="round" stroke-linejoin="round"/>
<path d="M87.1465 137.373C81.7558 137.366 76.5877 135.222 72.7759 131.41C68.9642 127.599 66.8199 122.43 66.8137 117.04V110.194C66.8137 109.9 66.9303 109.619 67.1378 109.411C67.3454 109.204 67.6269 109.087 67.9204 109.087H70.6873C70.9809 109.087 71.2624 109.204 71.4699 109.411C71.6775 109.619 71.7941 109.9 71.7941 110.194C71.7941 110.487 71.6775 110.769 71.4699 110.976C71.2624 111.184 70.9809 111.3 70.6873 111.3H69.039V117.04C69.039 121.845 70.948 126.454 74.3461 129.852C77.7441 133.25 82.3528 135.159 87.1583 135.159C91.9639 135.159 96.5726 133.25 99.9706 129.852C103.369 126.454 105.278 121.845 105.278 117.04V111.3H103.617C103.324 111.3 103.042 111.184 102.835 110.976C102.627 110.769 102.511 110.487 102.511 110.194C102.511 109.9 102.627 109.619 102.835 109.411C103.042 109.204 103.324 109.087 103.617 109.087H106.384C106.678 109.087 106.959 109.204 107.167 109.411C107.375 109.619 107.491 109.9 107.491 110.194V117.04C107.485 122.433 105.339 127.602 101.525 131.415C97.7103 135.227 92.5392 137.369 87.1465 137.373Z" fill="#263238"/>
<path d="M108.586 154.385V152.172C108.587 151.881 108.53 151.593 108.419 151.324C108.308 151.055 108.145 150.811 107.939 150.605C107.733 150.4 107.489 150.237 107.22 150.126C106.952 150.015 106.664 149.958 106.373 149.958H67.9207C67.6299 149.958 67.3418 150.015 67.073 150.126C66.8042 150.237 66.56 150.4 66.3543 150.605C66.1487 150.811 65.9856 151.055 65.8746 151.324C65.7635 151.593 65.7066 151.881 65.7072 152.172V154.385H108.586Z" fill="#263238"/>
<path d="M89.3049 152.654C89.3416 152.496 89.3601 152.334 89.3603 152.172V136.266H84.9332V152.172C84.9334 152.334 84.9519 152.496 84.9886 152.654H89.3049Z" fill="#263238"/>
<path d="M100.839 89.6513C100.87 87.8333 100.538 86.0275 99.864 84.3389C99.1896 82.6504 98.1859 81.1131 96.9112 79.8165C95.6365 78.52 94.1164 77.4903 92.4396 76.7873C90.7628 76.0844 88.9628 75.7224 87.1446 75.7224C85.3264 75.7224 83.5264 76.0844 81.8496 76.7873C80.1728 77.4903 78.6527 78.52 77.378 79.8165C76.1033 81.1131 75.0996 82.6504 74.4252 84.3389C73.7509 86.0275 73.4195 87.8333 73.4504 89.6513V117.04C73.5114 120.631 74.981 124.055 77.5426 126.574C80.1041 129.092 83.5524 130.503 87.1446 130.503C90.7368 130.503 94.1851 129.092 96.7467 126.574C99.3082 124.055 100.778 120.631 100.839 117.04V89.6513Z" stroke="#263238" stroke-width="0.969642" stroke-linecap="round" stroke-linejoin="round"/>
<path d="M100.839 89.6513C100.87 87.8333 100.538 86.0275 99.864 84.3389C99.1896 82.6504 98.1859 81.1131 96.9112 79.8165C95.6365 78.52 94.1164 77.4903 92.4396 76.7873C90.7628 76.0844 88.9628 75.7224 87.1446 75.7224C85.3264 75.7224 83.5264 76.0844 81.8496 76.7873C80.1728 77.4903 78.6527 78.52 77.378 79.8165C76.1033 81.1131 75.0996 82.6504 74.4252 84.3389C73.7509 86.0275 73.4195 87.8333 73.4504 89.6513V117.04C73.5114 120.631 74.981 124.055 77.5426 126.574C80.1041 129.092 83.5524 130.503 87.1446 130.503C90.7368 130.503 94.1851 129.092 96.7467 126.574C99.3082 124.055 100.778 120.631 100.839 117.04V89.6513Z" fill="white"/>
<mask id="mask0_285_1009" style="mask-type:luminance" maskUnits="userSpaceOnUse" x="73" y="75" width="28" height="56">
<path d="M100.839 89.6513C100.87 87.8333 100.538 86.0275 99.864 84.3389C99.1896 82.6504 98.1859 81.1131 96.9112 79.8165C95.6365 78.52 94.1164 77.4903 92.4396 76.7873C90.7628 76.0844 88.9628 75.7224 87.1446 75.7224C85.3264 75.7224 83.5264 76.0844 81.8496 76.7873C80.1728 77.4903 78.6527 78.52 77.378 79.8165C76.1033 81.1131 75.0996 82.6504 74.4252 84.3389C73.7509 86.0275 73.4195 87.8333 73.4504 89.6513V117.04C73.5114 120.631 74.981 124.055 77.5426 126.574C80.1041 129.092 83.5524 130.503 87.1446 130.503C90.7368 130.503 94.1851 129.092 96.7467 126.574C99.3082 124.055 100.778 120.631 100.839 117.04V89.6513Z" fill="white"/>
</mask>
<g mask="url(#mask0_285_1009)">
<path d="M81.4745 91.0942H73.4504V94.4145H81.4745C81.9148 94.4145 82.337 94.2396 82.6484 93.9283C82.9597 93.6169 83.1346 93.1947 83.1346 92.7544C83.1346 92.3141 82.9597 91.8918 82.6484 91.5805C82.337 91.2691 81.9148 91.0942 81.4745 91.0942Z" fill="white"/>
<path d="M100.839 91.0942H92.8187C92.3784 91.0942 91.9562 91.2691 91.6448 91.5805C91.3335 91.8918 91.1586 92.3141 91.1586 92.7544C91.1586 93.1947 91.3335 93.6169 91.6448 93.9283C91.9562 94.2396 92.3784 94.4145 92.8187 94.4145H100.839V91.0942Z" fill="white"/>
<path d="M87.1467 91.0942C86.8183 91.0942 86.4973 91.1916 86.2243 91.374C85.9513 91.5564 85.7385 91.8157 85.6129 92.1191C85.4872 92.4224 85.4544 92.7562 85.5184 93.0783C85.5825 93.4003 85.7406 93.6961 85.9728 93.9283C86.2049 94.1604 86.5007 94.3186 86.8228 94.3826C87.1448 94.4467 87.4786 94.4138 87.782 94.2882C88.0853 94.1625 88.3446 93.9497 88.527 93.6767C88.7094 93.4037 88.8068 93.0827 88.8068 92.7544C88.8068 92.3141 88.6319 91.8918 88.3206 91.5805C88.0092 91.2691 87.587 91.0942 87.1467 91.0942Z" fill="white"/>
<path d="M87.1467 97.8059C86.8183 97.8059 86.4973 97.9033 86.2243 98.0857C85.9513 98.2681 85.7385 98.5274 85.6129 98.8307C85.4872 99.1341 85.4544 99.4679 85.5184 99.7899C85.5825 100.112 85.7406 100.408 85.9728 100.64C86.2049 100.872 86.5007 101.03 86.8228 101.094C87.1448 101.158 87.4786 101.125 87.782 101C88.0853 100.874 88.3446 100.661 88.527 100.388C88.7094 100.115 88.8068 99.7944 88.8068 99.4661C88.8068 99.0258 88.6319 98.6035 88.3206 98.2922C88.0092 97.9808 87.587 97.8059 87.1467 97.8059Z" fill="white"/>
<path d="M87.1467 104.506C86.8183 104.506 86.4973 104.603 86.2243 104.786C85.9513 104.968 85.7385 105.227 85.6129 105.531C85.4872 105.834 85.4544 106.168 85.5184 106.49C85.5825 106.812 85.7406 107.108 85.9728 107.34C86.2049 107.572 86.5007 107.73 86.8228 107.794C87.1448 107.858 87.4786 107.825 87.782 107.7C88.0853 107.574 88.3446 107.361 88.527 107.088C88.7094 106.815 88.8068 106.494 88.8068 106.166C88.8068 105.726 88.6319 105.303 88.3206 104.992C88.0092 104.681 87.587 104.506 87.1467 104.506Z" fill="white"/>
<path d="M81.4745 97.8059H73.4505V101.126H81.4745C81.9148 101.126 82.3371 100.951 82.6484 100.64C82.9598 100.329 83.1347 99.9064 83.1347 99.4661C83.1347 99.0258 82.9598 98.6035 82.6484 98.2922C82.3371 97.9808 81.9148 97.8059 81.4745 97.8059Z" fill="white"/>
<path d="M100.839 97.8059H92.8187C92.3784 97.8059 91.9562 97.9808 91.6448 98.2922C91.3335 98.6035 91.1586 99.0258 91.1586 99.4661C91.1586 99.9064 91.3335 100.329 91.6448 100.64C91.9562 100.951 92.3784 101.126 92.8187 101.126H100.839V97.8059Z" fill="white"/>
<path d="M81.4745 104.506H73.4505V107.826H81.4745C81.9148 107.826 82.3371 107.651 82.6484 107.34C82.9598 107.029 83.1347 106.606 83.1347 106.166C83.1347 105.726 82.9598 105.303 82.6484 104.992C82.3371 104.681 81.9148 104.506 81.4745 104.506Z" fill="white"/>
<path d="M100.839 104.506H92.8187C92.3784 104.506 91.9562 104.681 91.6448 104.992C91.3335 105.303 91.1586 105.726 91.1586 106.166C91.1586 106.606 91.3335 107.029 91.6448 107.34C91.9562 107.651 92.3784 107.826 92.8187 107.826H100.839V104.506Z" fill="white"/>
</g>
<path d="M100.839 89.6513C100.87 87.8333 100.538 86.0275 99.864 84.3389C99.1896 82.6504 98.1859 81.1131 96.9112 79.8165C95.6365 78.52 94.1164 77.4903 92.4396 76.7873C90.7628 76.0844 88.9628 75.7224 87.1446 75.7224C85.3264 75.7224 83.5264 76.0844 81.8496 76.7873C80.1728 77.4903 78.6527 78.52 77.378 79.8165C76.1033 81.1131 75.0996 82.6504 74.4252 84.3389C73.7509 86.0275 73.4195 87.8333 73.4504 89.6513V117.04C73.5114 120.631 74.981 124.055 77.5426 126.574C80.1041 129.092 83.5524 130.503 87.1446 130.503C90.7368 130.503 94.1851 129.092 96.7467 126.574C99.3082 124.055 100.778 120.631 100.839 117.04V89.6513Z" stroke="#263238" stroke-width="0.969642" stroke-miterlimit="10"/>
<path d="M73.4504 117.04C73.5114 120.631 74.981 124.055 77.5425 126.573C80.1041 129.092 83.5524 130.503 87.1446 130.503C90.7367 130.503 94.1851 129.092 96.7466 126.573C99.3082 124.055 100.778 120.631 100.839 117.04H73.4504Z" fill="#263238" stroke="#263238" stroke-width="0.969642" stroke-miterlimit="10"/>
<path d="M103.527 51.0137V34.1475C103.527 33.3319 103.203 32.5497 102.626 31.973C102.049 31.3963 101.267 31.0723 100.451 31.0723H73.9918C73.1762 31.0723 72.394 31.3963 71.8173 31.973C71.2406 32.5497 70.9166 33.3319 70.9166 34.1475V51.0137C70.9166 51.8293 71.2406 52.6115 71.8173 53.1883C72.394 53.765 73.1762 54.089 73.9918 54.089H83.2056L82.4783 60.5082H87.2215V66.5598L92.8502 56.678H88.2334L88.7196 54.085H100.451C101.266 54.085 102.048 53.7616 102.624 53.1857C103.201 52.6098 103.525 51.8287 103.527 51.0137Z" fill="white" stroke="#263238" stroke-width="1.02547" stroke-linecap="round" stroke-linejoin="round"/>
<path d="M75.9684 36.8433H93.8584" stroke="#263238" stroke-width="1.02547" stroke-linecap="round" stroke-linejoin="round"/>
<path d="M75.9684 41.6223H98.4752" stroke="#263238" stroke-width="1.02547" stroke-linecap="round" stroke-linejoin="round"/>
<path d="M75.9684 46.4011H95.0126" stroke="#263238" stroke-width="1.02547" stroke-linecap="round" stroke-linejoin="round"/>
<path d="M123.737 123.234L139.722 128.562L135.757 132.531L143.157 139.93L127.172 134.602L131.137 130.633L123.737 123.234Z" fill="white" stroke="#263238" stroke-width="1.02547" stroke-linecap="round" stroke-linejoin="round"/>
<path d="M50.7065 123.234L34.7217 128.562L38.6862 132.531L31.2867 139.93L47.2715 134.602L43.307 130.633L50.7065 123.234Z" fill="white" stroke="#263238" stroke-width="1.02547" stroke-linecap="round" stroke-linejoin="round"/>
<path d="M86.7754 1L79.2375 16.0757H84.8504V26.5425L92.3843 11.4668H86.7754V1Z" fill="white" stroke="#263238" stroke-width="1.02547" stroke-linecap="round" stroke-linejoin="round"/>
</svg>
